<?xml version="1.0" encoding="UTF-8" standalone="no"?>
<!-- Created with Inkscape (http://www.inkscape.org/) -->

<svg
   xmlns:dc="http://purl.org/dc/elements/1.1/"
   xmlns:cc="http://creativecommons.org/ns#"
   xmlns:rdf="http://www.w3.org/1999/02/22-rdf-syntax-ns#"
   xmlns:svg="http://www.w3.org/2000/svg"
   xmlns="http://www.w3.org/2000/svg"
   xmlns:sodipodi="http://sodipodi.sourceforge.net/DTD/sodipodi-0.dtd"
   xmlns:inkscape="http://www.inkscape.org/namespaces/inkscape"
   width="150mm"
   height="50mm"
   viewBox="0 0 150 50"
   version="1.1"
   id="svg8"
   inkscape:version="0.92.4 (5da689c313, 2019-01-14)"
   sodipodi:docname="agirisk.svg">
  <defs
     id="defs2">
    <inkscape:path-effect
       effect="bspline"
       id="path-effect4530"
       is_visible="true"
       weight="33.333333"
       steps="2"
       helper_size="0"
       apply_no_weight="true"
       apply_with_weight="true"
       only_selected="false" />
    <inkscape:path-effect
       effect="simplify"
       id="path-effect4528"
       is_visible="true"
       steps="1"
       threshold="0.000408163"
       smooth_angles="360"
       helper_size="0"
       simplify_individual_paths="false"
       simplify_just_coalesce="false"
       simplifyindividualpaths="false"
       simplifyJustCoalesce="false" />
  </defs>
  <sodipodi:namedview
     id="base"
     pagecolor="#ffffff"
     bordercolor="#666666"
     borderopacity="1.0"
     inkscape:pageopacity="0.0"
     inkscape:pageshadow="2"
     inkscape:zoom="0.98994949"
     inkscape:cx="165.71031"
     inkscape:cy="166.8811"
     inkscape:document-units="mm"
     inkscape:current-layer="layer1"
     showgrid="false"
     inkscape:window-width="1920"
     inkscape:window-height="1017"
     inkscape:window-x="1672"
     inkscape:window-y="-8"
     inkscape:window-maximized="1" />
  <metadata
     id="metadata5">
    <rdf:RDF>
      <cc:Work
         rdf:about="">
        <dc:format>image/svg+xml</dc:format>
        <dc:type
           rdf:resource="http://purl.org/dc/dcmitype/StillImage" />
        <dc:title></dc:title>
      </cc:Work>
    </rdf:RDF>
  </metadata>
  <g
     inkscape:label="Calque 1"
     inkscape:groupmode="layer"
     id="layer1"
     transform="translate(0,-247)">
    <g
       id="g4574"
       style="fill:#292574;fill-opacity:1">
      <g
         transform="matrix(3.1845212,0,0,3.1845212,-161.4345,89.804595)"
         id="text4520"
         style="font-style:normal;font-variant:normal;font-weight:normal;font-stretch:normal;font-size:10.58333302px;line-height:1.25;font-family:'Indie Flower';-inkscape-font-specification:'Indie Flower, Normal';font-variant-ligatures:normal;font-variant-caps:normal;font-variant-numeric:normal;font-feature-settings:normal;text-align:start;letter-spacing:0px;word-spacing:0px;writing-mode:lr-tb;text-anchor:start;fill:#292574;fill-opacity:1;stroke:none;stroke-width:0.1;stroke-miterlimit:4;stroke-dasharray:none"
         aria-label="DR">
        <path
           inkscape:connector-curvature="0"
           id="path4532"
           style="font-style:normal;font-variant:normal;font-weight:normal;font-stretch:normal;font-size:10.58333302px;font-family:'Indie Flower';-inkscape-font-specification:'Indie Flower, Normal';font-variant-ligatures:normal;font-variant-caps:normal;font-variant-numeric:normal;font-feature-settings:normal;text-align:start;writing-mode:lr-tb;text-anchor:start;fill:#292574;fill-opacity:1;stroke-width:0.1;stroke-miterlimit:4;stroke-dasharray:none"
           d="m 58.22118,61.383439 q 0,-0.08268 0.02067,-0.165364 0.03101,-0.09302 0.134359,-0.09302 0.05168,0 0.258382,0.06201 0.217041,0.05168 0.465088,0.124023 0.248047,0.07235 0.485759,0.134359 0.237711,0.06201 0.330729,0.07235 h 0.05168 q 0.454753,0 0.919841,-0.165364 0.465088,-0.1757 0.847493,-0.485759 0.382406,-0.310058 0.620117,-0.713135 0.248047,-0.413411 0.248047,-0.888834 0,-0.372071 -0.144694,-0.72347 -0.144694,-0.361735 -0.392741,-0.692464 -0.237711,-0.33073 -0.56844,-0.609782 -0.320394,-0.279053 -0.682129,-0.496094 -0.361735,-0.227376 -0.733806,-0.382406 -0.37207,-0.155029 -0.713134,-0.217041 0.01033,0.661459 0.103353,1.25057 0.103352,0.589111 0.19637,1.136881 0.103353,0.537435 0.155029,1.0542 0.06201,0.516764 0,1.033528 0,0.06201 0,0.134359 0,0.06201 -0.03101,0.134359 -0.02067,0.06201 -0.08268,0.103353 -0.05168,0.04134 -0.134359,0.04134 -0.155029,0.08268 -0.237711,-0.06201 -0.08268,-0.144694 -0.124024,-0.434082 -0.04134,-0.299723 -0.05168,-0.7028 -0.01033,-0.403076 -0.04134,-0.837158 -0.02067,-0.444417 -0.06201,-0.868164 -0.04134,-0.423746 -0.134359,-0.775146 -0.02067,-0.124024 -0.05168,-0.320394 -0.03101,-0.196371 -0.08268,-0.403076 -0.05168,-0.217041 -0.124024,-0.392741 -0.06201,-0.186035 -0.134359,-0.268718 -0.74414,0 -1.188557,0.05168 -0.444418,0.04134 -0.713135,0.103353 -0.258382,0.06201 -0.382406,0.134358 -0.113688,0.06201 -0.206705,0.103353 l -0.02067,0.01034 q -0.02067,0.01033 -0.03101,0.01033 -0.02067,0 -0.02067,-0.01033 -0.01034,-0.01034 -0.02067,-0.01034 -0.01034,-0.01033 -0.02067,-0.04134 -0.01034,-0.03101 -0.03101,-0.07235 -0.01034,-0.05168 -0.03101,-0.103353 -0.01034,-0.05168 -0.01034,-0.07235 v -0.04134 q 0,-0.144694 0.144694,-0.248047 0.15503,-0.103353 0.372071,-0.1757 0.227376,-0.07235 0.496093,-0.113688 0.268718,-0.05168 0.496094,-0.07235 0.237712,-0.02067 0.392741,-0.03101 0.165365,-0.02067 0.1757,-0.02067 0.527099,0 1.126546,0.124023 0.599447,0.113688 1.178223,0.341065 0.589111,0.227376 1.116211,0.56844 0.537434,0.33073 0.940511,0.764812 0.413411,0.434082 0.651123,0.971517 0.248047,0.537434 0.248047,1.157552 0,0.56844 -0.1757,1.023193 -0.1757,0.454753 -0.485759,0.795817 -0.310058,0.341064 -0.72347,0.578776 -0.413411,0.227376 -0.878499,0.330729 -0.465088,0.113688 -0.961182,0.113688 -0.485758,0 -0.950846,-0.113688 -0.09302,-0.03101 -0.227376,-0.08268 -0.134359,-0.06201 -0.268718,-0.134359 -0.124023,-0.07235 -0.217041,-0.1757 -0.08268,-0.113688 -0.08268,-0.248047 z" />
        <path
           inkscape:connector-curvature="0"
           id="path4534"
           style="font-style:normal;font-variant:normal;font-weight:normal;font-stretch:normal;font-size:10.58333302px;font-family:'Indie Flower';-inkscape-font-specification:'Indie Flower, Normal';font-variant-ligatures:normal;font-variant-caps:normal;font-variant-numeric:normal;font-feature-settings:normal;text-align:start;writing-mode:lr-tb;text-anchor:start;fill:#292574;fill-opacity:1;stroke-width:0.1;stroke-miterlimit:4;stroke-dasharray:none"
           d="m 65.548898,59.729794 q 0.07235,0.465087 0.165364,0.857828 0.103353,0.382406 0.15503,0.671794 0.05168,0.289388 0.031,0.465088 -0.02067,0.1757 -0.206705,0.217041 -0.02067,0.06201 -0.08268,-0.07235 -0.06201,-0.134359 -0.144694,-0.403076 -0.08268,-0.279053 -0.175699,-0.661459 -0.09302,-0.382405 -0.186036,-0.806152 -0.08268,-0.434082 -0.155029,-0.888835 -0.07235,-0.454752 -0.124023,-0.868164 -0.04134,-0.413411 -0.04134,-0.754475 0,-0.341065 0.06201,-0.568441 0.124024,-0.09302 0.217041,-0.04134 0.103353,0.04134 0.15503,0.144694 0.06201,0.103353 0.08268,0.237711 0,0.134359 -0.02067,0.248047 0.01034,0.04134 0.03101,0.155029 0.03101,0.113689 0.06201,0.248047 0.03101,0.124024 0.06201,0.237712 0.03101,0.113688 0.05168,0.155029 0.144694,-0.02067 0.423747,-0.05168 0.289388,-0.04134 0.620117,-0.103353 0.330729,-0.07235 0.671793,-0.165365 0.3514,-0.09302 0.630453,-0.217041 0.279053,-0.124023 0.454753,-0.289388 0.186035,-0.165364 0.186035,-0.37207 0,-0.02067 -0.01034,-0.05168 v -0.03101 Q 68.17406,56.691219 67.874337,56.484514 67.574614,56.277808 67.233549,56.18479 66.90282,56.081438 66.53075,56.050432 q -0.37207,-0.03101 -0.795817,-0.03101 -0.310059,0 -0.651123,0.01033 -0.341065,0 -0.630453,0.08268 -0.279052,0.08268 -0.465088,0.299724 -0.186035,0.217041 -0.186035,0.630452 -0.09302,0 -0.165364,-0.06201 -0.07235,-0.06201 -0.124024,-0.144695 -0.05168,-0.09302 -0.08268,-0.186035 -0.03101,-0.103353 -0.03101,-0.1757 0,-0.144694 0.06201,-0.268717 0.06201,-0.134359 0.165364,-0.237712 0.103353,-0.103352 0.227377,-0.186035 0.124023,-0.09302 0.248047,-0.155029 0.330729,-0.06201 0.578776,-0.103353 0.258382,-0.04134 0.485758,-0.06201 0.227376,-0.03101 0.454753,-0.03101 0.237711,-0.01034 0.527099,-0.01034 0.289388,0 0.609782,0.05168 0.320394,0.04134 0.651123,0.134358 0.330729,0.09302 0.620117,0.248047 0.299724,0.144694 0.5271,0.361735 0.237712,0.206706 0.37207,0.485759 0.134359,0.268717 0.134359,0.609782 0,0.299723 -0.186035,0.527099 -0.186035,0.227377 -0.496094,0.392741 -0.310058,0.165365 -0.692464,0.279053 -0.37207,0.113688 -0.754476,0.206706 -0.37207,0.08268 -0.702799,0.144694 -0.33073,0.08268 -0.537435,0.144694 0.516764,0.713134 1.023193,1.209228 0.506429,0.496094 0.950846,0.837158 0.444418,0.341065 0.806153,0.558106 0.361735,0.206705 0.589111,0.351399 0.227376,0.144694 0.289388,0.227377 0.06201,0.08268 -0.09302,0.186035 -0.113688,0.144694 -0.37207,0.07235 -0.258382,-0.07235 -0.599446,-0.289388 -0.33073,-0.206706 -0.713135,-0.516764 -0.382406,-0.320394 -0.754476,-0.661459 -0.37207,-0.341064 -0.713135,-0.671793 -0.330729,-0.33073 -0.558105,-0.578776 z" />
      </g>
      <g
         transform="matrix(3.5418197,0,0,3.5418197,-199.06927,65.329129)"
         id="text4524"
         style="font-style:normal;font-variant:normal;font-weight:normal;font-stretch:normal;font-size:10.58333302px;line-height:1.25;font-family:'Indie Flower';-inkscape-font-specification:'Indie Flower, Normal';font-variant-ligatures:normal;font-variant-caps:normal;font-variant-numeric:normal;font-feature-settings:normal;text-align:start;letter-spacing:0px;word-spacing:0px;writing-mode:lr-tb;text-anchor:start;fill:#292574;fill-opacity:1;stroke:none;stroke-width:0.26458332"
         aria-label="I">
        <path
           inkscape:connector-curvature="0"
           id="path4537"
           style="font-style:normal;font-variant:normal;font-weight:normal;font-stretch:normal;font-size:10.58333302px;font-family:'Indie Flower';-inkscape-font-specification:'Indie Flower, Normal';font-variant-ligatures:normal;font-variant-caps:normal;font-variant-numeric:normal;font-feature-settings:normal;text-align:start;writing-mode:lr-tb;text-anchor:start;fill:#292574;fill-opacity:1;stroke-width:0.26458332"
           d="m 88.057205,62.147508 q -0.05168,-0.382406 -0.103353,-0.795817 -0.04134,-0.423747 -0.08268,-0.847494 -0.04134,-0.423746 -0.09302,-0.837158 -0.05168,-0.434082 -0.113688,-0.806152 -0.03101,-0.155029 -0.113688,-0.413411 -0.07235,-0.258383 -0.144694,-0.547771 -0.07235,-0.299723 -0.134359,-0.599446 -0.05168,-0.299724 -0.05168,-0.54777 0.124023,-0.165365 0.248047,-0.06201 0.124023,0.103353 0.248047,0.392741 0.124023,0.279053 0.237711,0.72347 0.124024,0.434082 0.217041,0.930176 0.103353,0.496093 0.186035,1.023193 0.09302,0.527099 0.15503,0.992187 0.06201,0.465088 0.103353,0.826823 0.04134,0.361735 0.04134,0.54777 0,0.06201 0,0.124024 0,0.06201 -0.01034,0.124023 -0.01033,0.05168 -0.06201,0.103353 -0.04134,0.04134 -0.134359,0.06201 -0.06201,0.02067 -0.124023,-0.03101 -0.06201,-0.06201 -0.124024,-0.134359 -0.06201,-0.07235 -0.103353,-0.134358 -0.03101,-0.07235 -0.04134,-0.09302 z" />
      </g>
    </g>
    <path
       style="fill:#ef7757;stroke-width:0.29557869;fill-opacity:1"
       d="m 26.197229,254.22776 c -1.486499,-0.10413 -3.048466,0.80999 -5.435573,2.80254 -1.293776,1.07994 -2.593847,1.96326 -2.889756,1.96326 -0.295906,0 -1.074464,-0.59009 -1.729571,-1.30992 -2.820988,-3.09972 -5.739436,-2.95142 -7.8480885,0.39822 -0.9399302,1.49313 -0.5315443,0.84728 -0.5924372,2.38951 -0.1335715,0.95386 0.9605144,0.71814 2.7646867,-0.0159 1.775239,-1.67891 2.086687,-1.66795 3.449276,0.11847 0.890008,1.16684 2.939536,2.26343 4.211214,2.25451 1.45297,-0.01 3.364176,-1.08898 5.498105,-3.10204 1.374805,-1.29693 2.268599,-1.91718 2.764687,-1.91718 0.403179,0 1.644919,0.46612 2.761393,1.03513 2.483402,1.26559 3.524348,1.29359 5.55406,0.14808 0.864165,-0.48774 1.716604,-0.88702 1.894141,-0.88702 0.177505,0 1.066677,0.53131 1.974775,1.18159 2.281305,1.6336 4.172061,1.54765 5.81242,-0.26495 0.309313,-0.3418 0.658951,-0.62041 0.77675,-0.62041 0.117827,0 0.995768,0.61452 1.950089,1.36587 4.774212,3.75888 8.593577,3.93948 11.921067,0.56611 0.888568,-0.90083 0.705732,-1.55458 2.047189,-1.63741 1.147985,-0.071 1.759986,1.77903 2.92925,2.91278 2.406482,2.69156 13.927465,23.7251 15.646807,25.90414 0.980027,1.24206 1.88067,1.92887 2.516196,1.93364 1.118034,0.01 2.395454,-0.95669 3.511813,-2.83381 0.17069,-0.28692 2.694204,-5.34681 7.255658,-11.00446 3.255332,-4.03762 6.580001,-6.96292 8.09658,-8.39115 1.07192,-0.82272 2.39244,-1.95632 7.53706,-6.39169 2.66407,-2.76445 2.91246,-2.94733 4.01868,-2.94733 1.30963,0 1.74998,0.36303 2.68569,2.21668 1.14165,2.26161 2.81494,3.27627 4.59629,2.78442 1.10172,-0.30413 2.08013,-1.31817 3.4608,-3.58749 0.84701,-1.39225 1.84858,-1.96501 2.80088,-1.59959 0.24852,0.0955 0.72472,0.80912 1.05651,1.58478 1.01275,2.36759 2.57117,3.62698 4.48768,3.62698 1.24268,0 2.15769,-0.91578 2.43885,-2.43884 0.27833,-1.50774 0.89067,-1.43386 2.4191,0.29298 l 1.24411,1.40705 0.0115,-2.56558 c 0.0108,-2.42514 -0.0306,-2.59851 -0.76686,-3.17774 -1.68421,-1.32479 -4.69726,-0.433 -5.77294,1.70818 -0.27027,0.53796 -0.55808,1.04516 -0.64015,1.12726 -0.0821,0.0822 -0.95773,-0.59303 -1.94516,-1.50084 -1.66675,-1.53223 -1.89793,-1.65057 -3.23534,-1.65057 -1.8495,0 -2.64276,0.61627 -4.18488,3.25675 -0.65316,1.1185 -1.32712,2.11965 -1.49746,2.2249 -0.52273,0.32307 -1.41037,-0.74655 -2.50138,-3.01482 -1.15422,-2.39976 -1.99819,-3.06383 -3.88867,-3.05268 -1.64938,0.01 -3.29425,0.87819 -5.43227,2.86836 -2.84329,3.04625 -4.60901,4.53135 -5.78446,5.60835 -0.23858,0.17897 -0.42629,0.3054 -0.74218,0.56284 -2.623974,2.13745 -6.679506,5.37626 -7.143755,5.95231 -1.041132,1.2918 -4.213042,4.74335 -4.787186,5.80255 -0.648114,1.19563 -3.685711,4.81579 -5.042266,7.42185 -0.322856,0.62025 -1.551553,3.08761 -2.335171,3.07901 -0.843866,-0.01 -7.059373,-13.23346 -8.565595,-15.76694 -4.630223,-7.78804 -6.054717,-9.98825 -7.708203,-12.55794 -2.490742,-3.63946 -6.137248,-2.64672 -9.562856,-0.82941 -1.072534,0.56901 -2.261434,1.03513 -2.641268,1.03513 -1.06811,0 -2.558011,-0.58859 -4.178292,-1.6506 -2.96677,-1.9445 -4.079958,-1.86419 -6.380176,0.45914 -1.620889,1.63717 -2.02797,1.65188 -4.008796,0.1398 -1.680188,-1.28253 -3.16265,-1.3603 -5.037327,-0.26176 -1.589799,0.93169 -2.017008,0.81969 -4.130569,-1.09436 -1.417736,-1.28391 -2.52844,-1.981 -3.684609,-2.06198 z"
       id="path4551"
       inkscape:connector-curvature="0" />
  </g>
</svg>
