<?xml version="1.0" encoding="UTF-8"?><svg id="Calque_1" xmlns="http://www.w3.org/2000/svg" xmlns:xlink="http://www.w3.org/1999/xlink" viewBox="0 0 2588 2358"><defs><style>.cls-1{fill:none;}.cls-2{clip-path:url(#clippath);}.cls-3{fill:#fa8b6f;}.cls-4{fill:#f86545;}.cls-5{fill:#eac9c3;}.cls-6{fill:#fbd8cf;}.cls-7{fill:#e59e91;}.cls-8,.cls-9,.cls-10{fill:#ef7757;}.cls-11{fill:#fee8d6;}.cls-12{fill:#fff;}.cls-13{fill:#fefefe;}.cls-14{fill:#fbf4ed;}.cls-15{fill:#7e97ce;}.cls-16{fill:#8187bf;}.cls-17{fill:#687ea9;}.cls-18{fill:#8c0b00;}.cls-19{fill:#334781;}.cls-20{fill:#c16348;}.cls-21{fill:#ccc;}.cls-22{fill:#c6bfd8;}.cls-23{fill:#ddbfa8;}.cls-24{fill:#cc8f83;}.cls-25{fill:#12406c;}.cls-26{fill:#058b7d;}.cls-27{fill:#1b7a7a;}.cls-28{fill:#5b5b89;}.cls-29{fill:#5a71b4;}.cls-30{fill:#292574;}.cls-31{fill:#4b5d93;}.cls-32{fill:#5362a0;}.cls-33{fill:#24a3a3;}.cls-34{fill:#7b5783;}.cls-35,.cls-9{opacity:.55;}.cls-36{opacity:.8;}.cls-10{opacity:.4;}</style><clipPath id="clippath"><path class="cls-1" d="M1283.83,2209.53c-990.73-12.87-1009.09-1001.67-1000.43-996.72-4.42-160.09,10.8-289.82,186.73-594.82,47.25-81.92,21.88-317.99,103.88-393.25C987.14-154.4,2092.58,59.04,2092.58,59.04l45.76,619.55s241.14,345.02,98.93,805.05c-104.24,337.2-477.34,732.08-953.44,725.9Z"/></clipPath></defs><circle class="cls-11" cx="1280.73" cy="1198.59" r="998.58"/><g class="cls-36"><g class="cls-2"><path class="cls-12" d="M1865.09,568.94c-1.21,1.38-2.4,2.77-3.6,4.16-.28-.66-.53-1.34-.81-2,1.49-.69,2.95-1.43,4.41-2.16Z"/><path class="cls-12" d="M1696.36,460.94c-.94-59.33-43.67-107.11-96.28-107.11-13.31,0-25.98,3.06-37.51,8.58-21.36-40.76-60.59-68.09-105.47-68.09-58.59,0-107.55,46.57-119.68,108.8-4.51-1.09-9.19-1.68-13.99-1.68-31.95,0-58.62,25.5-65.06,59.51h438Z"/><polygon class="cls-26" points="1233.29 1395.07 1176.53 1336.82 1227.97 1336.82 1178.31 1266.83 1210.82 1266.83 1165.89 1200.89 1185.69 1201.56 1133.18 1109.82 1080.66 1201.56 1100.47 1200.89 1055.54 1266.83 1088.05 1266.83 1038.39 1336.82 1089.82 1336.82 1033.07 1395.07 1124.47 1395.07 1121.74 1459.64 1133.18 1459.64 1144.62 1459.64 1141.89 1395.07 1233.29 1395.07"/><g><path class="cls-26" d="M1617.63,1203.67c-26.22,9.57-79.4,141.64-65.88,204.8,13.52,63.16,65.88,67.95,65.88,67.95,0,0,52.36-4.79,65.88-67.95,13.52-63.16-39.65-195.23-65.88-204.8Z"/><polygon class="cls-25" points="1670.15 1369.29 1625.12 1421.75 1622.2 1352.9 1655.3 1287.27 1621.74 1341.92 1617.63 1244.79 1613.52 1341.92 1579.96 1287.27 1613.06 1352.9 1610.15 1421.75 1565.12 1369.29 1609.63 1433.98 1606.19 1515.32 1617.63 1515.32 1629.07 1515.32 1625.63 1433.98 1670.15 1369.29"/></g><path class="cls-21" d="M250,1171.75s334.24-148.08,600.76-104.13c267.81,44.16,487.84,165.99,685.4,165.99s376.76-114.4,504.88-114.4,253.11,52.53,253.11,52.53v1103.22H250V1171.75Z"/><g><g><g><rect class="cls-16" x="1130.47" y="333.57" width="16.98" height="147.82" transform="translate(2277.92 814.95) rotate(180)"/><rect class="cls-6" x="1146.61" y="333.57" width="15.73" height="147.82" transform="translate(2308.95 814.95) rotate(180)"/></g><polygon class="cls-6" points="1235.6 541.05 1082.98 355.47 930.36 541.05 930.36 949.25 1235.6 949.25 1235.6 541.05"/><g><g><rect class="cls-32" x="1132.21" y="551.06" width="45.8" height="49.91" transform="translate(2310.22 1152.02) rotate(180)"/><rect class="cls-19" x="1168.43" y="551.06" width="9.58" height="49.91"/></g><g><rect class="cls-32" x="1060.08" y="551.06" width="45.8" height="49.91" transform="translate(2165.96 1152.02) rotate(180)"/><rect class="cls-19" x="1096.3" y="551.06" width="9.58" height="49.91"/></g><g><rect class="cls-32" x="1060.08" y="456.43" width="45.8" height="49.91" transform="translate(2165.96 962.77) rotate(180)"/><rect class="cls-19" x="1096.3" y="456.43" width="9.58" height="49.91"/></g><g><rect class="cls-32" x="987.95" y="551.06" width="45.8" height="49.91" transform="translate(2021.7 1152.02) rotate(180)"/><rect class="cls-19" x="1024.17" y="551.06" width="9.58" height="49.91"/></g></g><g><g><rect class="cls-32" x="1132.21" y="649.8" width="45.8" height="49.91" transform="translate(2310.22 1349.51) rotate(180)"/><rect class="cls-19" x="1168.43" y="649.8" width="9.58" height="49.91"/></g><g><rect class="cls-32" x="1060.08" y="649.8" width="45.8" height="49.91" transform="translate(2165.96 1349.51) rotate(180)"/><rect class="cls-19" x="1096.3" y="649.8" width="9.58" height="49.91"/></g><g><rect class="cls-32" x="987.95" y="649.8" width="45.8" height="49.91" transform="translate(2021.7 1349.51) rotate(180)"/><rect class="cls-19" x="1024.17" y="649.8" width="9.58" height="49.91"/></g></g><g><g><rect class="cls-32" x="1132.21" y="748.54" width="45.8" height="49.91" transform="translate(2310.22 1547) rotate(180)"/><rect class="cls-19" x="1168.43" y="748.54" width="9.58" height="49.91"/></g><g><rect class="cls-32" x="1060.08" y="748.54" width="45.8" height="49.91" transform="translate(2165.96 1547) rotate(180)"/><rect class="cls-19" x="1096.3" y="748.54" width="9.58" height="49.91"/></g><g><rect class="cls-32" x="987.95" y="748.54" width="45.8" height="49.91" transform="translate(2021.7 1547) rotate(180)"/><rect class="cls-19" x="1024.17" y="748.54" width="9.58" height="49.91"/></g></g><g><g><rect class="cls-32" x="1132.21" y="847.29" width="45.8" height="49.91" transform="translate(2310.22 1744.49) rotate(180)"/><rect class="cls-19" x="1168.43" y="847.29" width="9.58" height="49.91"/></g><g><rect class="cls-32" x="1060.08" y="847.29" width="45.8" height="49.91" transform="translate(2165.96 1744.49) rotate(180)"/><rect class="cls-19" x="1096.3" y="847.29" width="9.58" height="49.91"/></g><g><rect class="cls-32" x="987.95" y="847.29" width="45.8" height="49.91" transform="translate(2021.7 1744.49) rotate(180)"/><rect class="cls-19" x="1024.17" y="847.29" width="9.58" height="49.91"/></g></g><polygon class="cls-4" points="930.37 541.04 930.37 563.45 1082.98 377.88 1235.59 563.45 1235.59 541.04 1082.98 355.47 930.37 541.04"/><rect class="cls-18" x="930.37" y="949.24" width="305.22" height="22.4"/></g><g><g><g><rect class="cls-13" x="630.33" y="442.37" width="64.57" height="305.12" transform="translate(1325.23 1189.85) rotate(180)"/><rect class="cls-5" x="593.3" y="442.37" width="51.34" height="305.12" transform="translate(1237.94 1189.85) rotate(180)"/></g><g><polygon class="cls-8" points="644.64 442.37 586.44 442.37 586.44 419.86 644.64 235.83 644.64 442.37"/><polygon class="cls-24" points="644.64 442.37 702.84 442.37 702.84 419.86 644.64 235.83 644.64 442.37"/></g><g><circle class="cls-28" cx="671.29" cy="543.27" r="15.39" transform="translate(-106.39 167.79) rotate(-13.21)"/><path class="cls-28" d="M680.68,543.27c0-7.47-5.33-13.7-12.39-15.1,.97-.19,1.97-.29,3-.29,8.5,0,15.39,6.89,15.39,15.39s-6.89,15.39-15.39,15.39c-1.03,0-2.03-.1-3-.29,7.06-1.39,12.39-7.62,12.39-15.1Z"/></g></g><polygon class="cls-14" points="861.13 1111.83 1135.21 1111.83 1135.21 877.28 998.17 710.36 861.13 877.28 861.13 1111.83"/><polygon class="cls-22" points="419.36 710.36 998.17 710.36 861.13 877.28 861.13 1111.83 282.32 1111.83 282.32 877.28 419.36 710.36"/><polygon class="cls-24" points="419.36 710.36 998.17 710.36 861.13 877.28 282.32 877.28 419.36 710.36"/><g><g><rect class="cls-30" x="1056.06" y="901.27" width="25.57" height="79.39" transform="translate(2137.69 1881.92) rotate(180)"/><rect class="cls-30" x="1075.28" y="901.27" width="6.35" height="79.39"/></g><g><rect class="cls-30" x="985.39" y="901.27" width="25.57" height="79.39" transform="translate(1996.34 1881.92) rotate(180)"/><rect class="cls-30" x="1004.6" y="901.27" width="6.35" height="79.39"/></g><g><rect class="cls-30" x="914.71" y="901.27" width="25.57" height="79.39" transform="translate(1854.99 1881.92) rotate(180)"/><rect class="cls-30" x="933.93" y="901.27" width="6.35" height="79.39"/></g></g><polygon class="cls-30" points="454.87 1038.95 667.12 1038.95 667.12 880.17 560.99 750.91 454.87 880.17 454.87 1038.95"/><g><g><rect class="cls-28" x="737.33" y="903.4" width="49.27" height="97.23" transform="translate(1523.93 1904.04) rotate(180)"/><rect class="cls-28" x="774.37" y="903.4" width="12.23" height="97.23"/></g><g><rect class="cls-22" x="601.14" y="903.4" width="49.27" height="97.23" transform="translate(1251.54 1904.04) rotate(180)"/><rect class="cls-22" x="638.17" y="903.4" width="12.23" height="97.23"/></g><g><rect class="cls-22" x="464.94" y="903.4" width="49.27" height="97.23" transform="translate(979.15 1904.04) rotate(180)"/><rect class="cls-22" x="501.98" y="903.4" width="12.23" height="97.23"/></g><g><rect class="cls-28" x="332.76" y="903.4" width="49.27" height="97.23" transform="translate(714.79 1904.04) rotate(180)"/><rect class="cls-28" x="369.8" y="903.4" width="12.23" height="97.23"/></g></g><g><rect class="cls-34" x="476.37" y="658.85" width="18.75" height="99.1" transform="translate(971.48 1416.8) rotate(180)"/><rect class="cls-14" x="494.19" y="658.85" width="17.36" height="99.1" transform="translate(1005.74 1416.8) rotate(180)"/></g><g><rect class="cls-34" x="810.51" y="685.25" width="13.75" height="72.7" transform="translate(1634.78 1443.2) rotate(180)"/><rect class="cls-14" x="823.59" y="685.25" width="12.74" height="72.7" transform="translate(1659.91 1443.2) rotate(180)"/></g><polygon class="cls-3" points="667.12 880.17 762.72 750.91 559.68 750.91 667.12 880.17"/></g><g><polygon class="cls-14" points="483.48 1501.28 706.82 1501.28 706.82 1227.57 595.15 1091.55 483.48 1227.57 483.48 1501.28"/><polygon class="cls-22" points="291.76 1091.55 595.15 1091.55 483.48 1227.57 483.48 1501.28 180.09 1501.28 180.09 1227.57 291.76 1091.55"/><polygon class="cls-7" points="291.76 1091.55 595.15 1091.55 483.48 1227.57 180.09 1227.57 291.76 1091.55"/><g><g><g><rect class="cls-28" x="642.32" y="1247.11" width="20.83" height="64.69" transform="translate(1305.48 2558.91) rotate(180)"/><rect class="cls-28" x="642.32" y="1247.11" width="2.83" height="64.69"/></g><g><rect class="cls-28" x="655.7" y="1254.09" width="5.56" height=".93" transform="translate(1316.96 2509.11) rotate(180)"/><rect class="cls-28" x="647.45" y="1254.09" width="5.56" height=".93" transform="translate(1300.45 2509.11) rotate(180)"/></g><g><rect class="cls-28" x="655.7" y="1257.96" width="5.56" height=".93" transform="translate(1316.96 2516.85) rotate(180)"/><rect class="cls-28" x="647.45" y="1257.96" width="5.56" height=".93" transform="translate(1300.45 2516.85) rotate(180)"/></g><g><rect class="cls-28" x="655.7" y="1261.83" width="5.56" height=".93" transform="translate(1316.96 2524.6) rotate(180)"/><rect class="cls-28" x="647.45" y="1261.83" width="5.56" height=".93" transform="translate(1300.45 2524.6) rotate(180)"/></g><g><rect class="cls-28" x="655.7" y="1265.71" width="5.56" height=".93" transform="translate(1316.96 2532.35) rotate(180)"/><rect class="cls-28" x="647.45" y="1265.71" width="5.56" height=".93" transform="translate(1300.45 2532.35) rotate(180)"/></g><g><rect class="cls-28" x="655.7" y="1269.58" width="5.56" height=".93" transform="translate(1316.96 2540.09) rotate(180)"/><rect class="cls-28" x="647.45" y="1269.58" width="5.56" height=".93" transform="translate(1300.45 2540.09) rotate(180)"/></g><g><rect class="cls-28" x="655.7" y="1273.45" width="5.56" height=".93" transform="translate(1316.96 2547.84) rotate(180)"/><rect class="cls-28" x="647.45" y="1273.45" width="5.56" height=".93" transform="translate(1300.45 2547.84) rotate(180)"/></g><g><rect class="cls-28" x="655.7" y="1277.32" width="5.56" height=".93" transform="translate(1316.96 2555.58) rotate(180)"/><rect class="cls-28" x="647.45" y="1277.32" width="5.56" height=".93" transform="translate(1300.45 2555.58) rotate(180)"/></g><g><rect class="cls-28" x="655.7" y="1281.2" width="5.56" height=".93" transform="translate(1316.96 2563.33) rotate(180)"/><rect class="cls-28" x="647.45" y="1281.2" width="5.56" height=".93" transform="translate(1300.45 2563.33) rotate(180)"/></g><g><rect class="cls-28" x="655.7" y="1285.07" width="5.56" height=".93" transform="translate(1316.96 2571.08) rotate(180)"/><rect class="cls-28" x="647.45" y="1285.07" width="5.56" height=".93" transform="translate(1300.45 2571.08) rotate(180)"/></g><g><rect class="cls-28" x="655.7" y="1288.94" width="5.56" height=".93" transform="translate(1316.96 2578.82) rotate(180)"/><rect class="cls-28" x="647.45" y="1288.94" width="5.56" height=".93" transform="translate(1300.45 2578.82) rotate(180)"/></g><g><rect class="cls-28" x="655.7" y="1292.82" width="5.56" height=".93" transform="translate(1316.96 2586.57) rotate(180)"/><rect class="cls-28" x="647.45" y="1292.82" width="5.56" height=".93" transform="translate(1300.45 2586.57) rotate(180)"/></g><g><rect class="cls-28" x="655.7" y="1296.69" width="5.56" height=".93" transform="translate(1316.96 2594.31) rotate(180)"/><rect class="cls-28" x="647.45" y="1296.69" width="5.56" height=".93" transform="translate(1300.45 2594.31) rotate(180)"/></g><g><rect class="cls-28" x="655.7" y="1300.56" width="5.56" height=".93" transform="translate(1316.96 2602.06) rotate(180)"/><rect class="cls-28" x="647.45" y="1300.56" width="5.56" height=".93" transform="translate(1300.45 2602.06) rotate(180)"/></g></g><g><g><rect class="cls-28" x="584.74" y="1247.11" width="20.83" height="64.69" transform="translate(1190.3 2558.91) rotate(180)"/><rect class="cls-28" x="584.74" y="1247.11" width="2.83" height="64.69"/></g><g><rect class="cls-28" x="598.11" y="1254.09" width="5.56" height=".93" transform="translate(1201.78 2509.11) rotate(180)"/><rect class="cls-28" x="589.86" y="1254.09" width="5.56" height=".93" transform="translate(1185.28 2509.11) rotate(180)"/></g><g><rect class="cls-28" x="598.11" y="1257.96" width="5.56" height=".93" transform="translate(1201.78 2516.85) rotate(180)"/><rect class="cls-28" x="589.86" y="1257.96" width="5.56" height=".93" transform="translate(1185.28 2516.85) rotate(180)"/></g><g><rect class="cls-28" x="598.11" y="1261.83" width="5.56" height=".93" transform="translate(1201.78 2524.6) rotate(180)"/><rect class="cls-28" x="589.86" y="1261.83" width="5.56" height=".93" transform="translate(1185.28 2524.6) rotate(180)"/></g><g><rect class="cls-28" x="598.11" y="1265.71" width="5.56" height=".93" transform="translate(1201.78 2532.35) rotate(180)"/><rect class="cls-28" x="589.86" y="1265.71" width="5.56" height=".93" transform="translate(1185.28 2532.35) rotate(180)"/></g><g><rect class="cls-28" x="598.11" y="1269.58" width="5.56" height=".93" transform="translate(1201.78 2540.09) rotate(180)"/><rect class="cls-28" x="589.86" y="1269.58" width="5.56" height=".93" transform="translate(1185.28 2540.09) rotate(180)"/></g><g><rect class="cls-28" x="598.11" y="1273.45" width="5.56" height=".93" transform="translate(1201.78 2547.84) rotate(180)"/><rect class="cls-28" x="589.86" y="1273.45" width="5.56" height=".93" transform="translate(1185.28 2547.84) rotate(180)"/></g><g><rect class="cls-28" x="598.11" y="1277.32" width="5.56" height=".93" transform="translate(1201.78 2555.58) rotate(180)"/><rect class="cls-28" x="589.86" y="1277.32" width="5.56" height=".93" transform="translate(1185.28 2555.58) rotate(180)"/></g><g><rect class="cls-28" x="598.11" y="1281.2" width="5.56" height=".93" transform="translate(1201.78 2563.33) rotate(180)"/><rect class="cls-28" x="589.86" y="1281.2" width="5.56" height=".93" transform="translate(1185.28 2563.33) rotate(180)"/></g><g><rect class="cls-28" x="598.11" y="1285.07" width="5.56" height=".93" transform="translate(1201.78 2571.08) rotate(180)"/><rect class="cls-28" x="589.86" y="1285.07" width="5.56" height=".93" transform="translate(1185.28 2571.08) rotate(180)"/></g><g><rect class="cls-28" x="598.11" y="1288.94" width="5.56" height=".93" transform="translate(1201.78 2578.82) rotate(180)"/><rect class="cls-28" x="589.86" y="1288.94" width="5.56" height=".93" transform="translate(1185.28 2578.82) rotate(180)"/></g><g><rect class="cls-28" x="598.11" y="1292.82" width="5.56" height=".93" transform="translate(1201.78 2586.57) rotate(180)"/><rect class="cls-28" x="589.86" y="1292.82" width="5.56" height=".93" transform="translate(1185.28 2586.57) rotate(180)"/></g><g><rect class="cls-28" x="598.11" y="1296.69" width="5.56" height=".93" transform="translate(1201.78 2594.31) rotate(180)"/><rect class="cls-28" x="589.86" y="1296.69" width="5.56" height=".93" transform="translate(1185.28 2594.31) rotate(180)"/></g><g><rect class="cls-28" x="598.11" y="1300.56" width="5.56" height=".93" transform="translate(1201.78 2602.06) rotate(180)"/><rect class="cls-28" x="589.86" y="1300.56" width="5.56" height=".93" transform="translate(1185.28 2602.06) rotate(180)"/></g></g><g><g><rect class="cls-28" x="527.15" y="1247.11" width="20.83" height="64.69" transform="translate(1075.13 2558.91) rotate(180)"/><rect class="cls-28" x="527.15" y="1247.11" width="2.83" height="64.69"/></g><g><rect class="cls-28" x="540.53" y="1254.09" width="5.56" height=".93" transform="translate(1086.61 2509.11) rotate(180)"/><rect class="cls-28" x="532.27" y="1254.09" width="5.56" height=".93" transform="translate(1070.1 2509.11) rotate(180)"/></g><g><rect class="cls-28" x="540.53" y="1257.96" width="5.56" height=".93" transform="translate(1086.61 2516.85) rotate(180)"/><rect class="cls-28" x="532.27" y="1257.96" width="5.56" height=".93" transform="translate(1070.1 2516.85) rotate(180)"/></g><g><rect class="cls-28" x="540.53" y="1261.83" width="5.56" height=".93" transform="translate(1086.61 2524.6) rotate(180)"/><rect class="cls-28" x="532.27" y="1261.83" width="5.56" height=".93" transform="translate(1070.1 2524.6) rotate(180)"/></g><g><rect class="cls-28" x="540.53" y="1265.71" width="5.56" height=".93" transform="translate(1086.61 2532.35) rotate(180)"/><rect class="cls-28" x="532.27" y="1265.71" width="5.56" height=".93" transform="translate(1070.1 2532.35) rotate(180)"/></g><g><rect class="cls-28" x="540.53" y="1269.58" width="5.56" height=".93" transform="translate(1086.61 2540.09) rotate(180)"/><rect class="cls-28" x="532.27" y="1269.58" width="5.56" height=".93" transform="translate(1070.1 2540.09) rotate(180)"/></g><g><rect class="cls-28" x="540.53" y="1273.45" width="5.56" height=".93" transform="translate(1086.61 2547.84) rotate(180)"/><rect class="cls-28" x="532.27" y="1273.45" width="5.56" height=".93" transform="translate(1070.1 2547.84) rotate(180)"/></g><g><rect class="cls-28" x="540.53" y="1277.32" width="5.56" height=".93" transform="translate(1086.61 2555.58) rotate(180)"/><rect class="cls-28" x="532.27" y="1277.32" width="5.56" height=".93" transform="translate(1070.1 2555.58) rotate(180)"/></g><g><rect class="cls-28" x="540.53" y="1281.2" width="5.56" height=".93" transform="translate(1086.61 2563.33) rotate(180)"/><rect class="cls-28" x="532.27" y="1281.2" width="5.56" height=".93" transform="translate(1070.1 2563.33) rotate(180)"/></g><g><rect class="cls-28" x="540.53" y="1285.07" width="5.56" height=".93" transform="translate(1086.61 2571.08) rotate(180)"/><rect class="cls-28" x="532.27" y="1285.07" width="5.56" height=".93" transform="translate(1070.1 2571.08) rotate(180)"/></g><g><rect class="cls-28" x="540.53" y="1288.94" width="5.56" height=".93" transform="translate(1086.61 2578.82) rotate(180)"/><rect class="cls-28" x="532.27" y="1288.94" width="5.56" height=".93" transform="translate(1070.1 2578.82) rotate(180)"/></g><g><rect class="cls-28" x="540.53" y="1292.82" width="5.56" height=".93" transform="translate(1086.61 2586.57) rotate(180)"/><rect class="cls-28" x="532.27" y="1292.82" width="5.56" height=".93" transform="translate(1070.1 2586.57) rotate(180)"/></g><g><rect class="cls-28" x="540.53" y="1296.69" width="5.56" height=".93" transform="translate(1086.61 2594.31) rotate(180)"/><rect class="cls-28" x="532.27" y="1296.69" width="5.56" height=".93" transform="translate(1070.1 2594.31) rotate(180)"/></g><g><rect class="cls-28" x="540.53" y="1300.56" width="5.56" height=".93" transform="translate(1086.61 2602.06) rotate(180)"/><rect class="cls-28" x="532.27" y="1300.56" width="5.56" height=".93" transform="translate(1070.1 2602.06) rotate(180)"/></g></g></g><g><g><rect class="cls-30" x="433.28" y="1247.11" width="20.83" height="64.69" transform="translate(887.4 2558.91) rotate(180)"/><rect class="cls-30" x="448.94" y="1247.11" width="5.17" height="64.69"/></g><g><rect class="cls-30" x="204.63" y="1247.11" width="20.83" height="64.69" transform="translate(430.09 2558.91) rotate(180)"/><rect class="cls-30" x="220.29" y="1247.11" width="5.17" height="64.69"/></g><g><g><g><rect class="cls-30" x="375.69" y="1247.11" width="20.83" height="64.69" transform="translate(772.22 2558.91) rotate(180)"/><rect class="cls-30" x="375.69" y="1247.11" width="2.83" height="64.69"/></g><g><rect class="cls-30" x="389.07" y="1254.09" width="5.56" height=".93" transform="translate(783.7 2509.11) rotate(180)"/><rect class="cls-30" x="380.82" y="1254.09" width="5.56" height=".93" transform="translate(767.19 2509.11) rotate(180)"/></g><g><rect class="cls-30" x="389.07" y="1257.96" width="5.56" height=".93" transform="translate(783.7 2516.85) rotate(180)"/><rect class="cls-30" x="380.82" y="1257.96" width="5.56" height=".93" transform="translate(767.19 2516.85) rotate(180)"/></g><g><rect class="cls-30" x="389.07" y="1261.83" width="5.56" height=".93" transform="translate(783.7 2524.6) rotate(180)"/><rect class="cls-30" x="380.82" y="1261.83" width="5.56" height=".93" transform="translate(767.19 2524.6) rotate(180)"/></g><g><rect class="cls-30" x="389.07" y="1265.71" width="5.56" height=".93" transform="translate(783.7 2532.35) rotate(180)"/><rect class="cls-30" x="380.82" y="1265.71" width="5.56" height=".93" transform="translate(767.19 2532.35) rotate(180)"/></g><g><rect class="cls-30" x="389.07" y="1269.58" width="5.56" height=".93" transform="translate(783.7 2540.09) rotate(180)"/><rect class="cls-30" x="380.82" y="1269.58" width="5.56" height=".93" transform="translate(767.19 2540.09) rotate(180)"/></g><g><rect class="cls-30" x="389.07" y="1273.45" width="5.56" height=".93" transform="translate(783.7 2547.84) rotate(180)"/><rect class="cls-30" x="380.82" y="1273.45" width="5.56" height=".93" transform="translate(767.19 2547.84) rotate(180)"/></g><g><rect class="cls-30" x="389.07" y="1277.32" width="5.56" height=".93" transform="translate(783.7 2555.58) rotate(180)"/><rect class="cls-30" x="380.82" y="1277.32" width="5.56" height=".93" transform="translate(767.19 2555.58) rotate(180)"/></g><g><rect class="cls-30" x="389.07" y="1281.2" width="5.56" height=".93" transform="translate(783.7 2563.33) rotate(180)"/><rect class="cls-30" x="380.82" y="1281.2" width="5.56" height=".93" transform="translate(767.19 2563.33) rotate(180)"/></g><g><rect class="cls-30" x="389.07" y="1285.07" width="5.56" height=".93" transform="translate(783.7 2571.08) rotate(180)"/><rect class="cls-30" x="380.82" y="1285.07" width="5.56" height=".93" transform="translate(767.19 2571.08) rotate(180)"/></g><g><rect class="cls-30" x="389.07" y="1288.94" width="5.56" height=".93" transform="translate(783.7 2578.82) rotate(180)"/><rect class="cls-30" x="380.82" y="1288.94" width="5.56" height=".93" transform="translate(767.19 2578.82) rotate(180)"/></g><g><rect class="cls-30" x="389.07" y="1292.82" width="5.56" height=".93" transform="translate(783.7 2586.57) rotate(180)"/><rect class="cls-30" x="380.82" y="1292.82" width="5.56" height=".93" transform="translate(767.19 2586.57) rotate(180)"/></g><g><rect class="cls-30" x="389.07" y="1296.69" width="5.56" height=".93" transform="translate(783.7 2594.31) rotate(180)"/><rect class="cls-30" x="380.82" y="1296.69" width="5.56" height=".93" transform="translate(767.19 2594.31) rotate(180)"/></g><g><rect class="cls-30" x="389.07" y="1300.56" width="5.56" height=".93" transform="translate(783.7 2602.06) rotate(180)"/><rect class="cls-30" x="380.82" y="1300.56" width="5.56" height=".93" transform="translate(767.19 2602.06) rotate(180)"/></g></g><g><g><rect class="cls-30" x="318.11" y="1247.11" width="20.83" height="64.69" transform="translate(657.05 2558.91) rotate(180)"/><rect class="cls-30" x="318.11" y="1247.11" width="2.83" height="64.69"/></g><g><rect class="cls-30" x="331.49" y="1254.09" width="5.56" height=".93" transform="translate(668.53 2509.11) rotate(180)"/><rect class="cls-30" x="323.23" y="1254.09" width="5.56" height=".93" transform="translate(652.02 2509.11) rotate(180)"/></g><g><rect class="cls-30" x="331.49" y="1257.96" width="5.56" height=".93" transform="translate(668.53 2516.85) rotate(180)"/><rect class="cls-30" x="323.23" y="1257.96" width="5.56" height=".93" transform="translate(652.02 2516.85) rotate(180)"/></g><g><rect class="cls-30" x="331.49" y="1261.83" width="5.56" height=".93" transform="translate(668.53 2524.6) rotate(180)"/><rect class="cls-30" x="323.23" y="1261.83" width="5.56" height=".93" transform="translate(652.02 2524.6) rotate(180)"/></g><g><rect class="cls-30" x="331.49" y="1265.71" width="5.56" height=".93" transform="translate(668.53 2532.35) rotate(180)"/><rect class="cls-30" x="323.23" y="1265.71" width="5.56" height=".93" transform="translate(652.02 2532.35) rotate(180)"/></g><g><rect class="cls-30" x="331.49" y="1269.58" width="5.56" height=".93" transform="translate(668.53 2540.09) rotate(180)"/><rect class="cls-30" x="323.23" y="1269.58" width="5.56" height=".93" transform="translate(652.02 2540.09) rotate(180)"/></g><g><rect class="cls-30" x="331.49" y="1273.45" width="5.56" height=".93" transform="translate(668.53 2547.84) rotate(180)"/><rect class="cls-30" x="323.23" y="1273.45" width="5.56" height=".93" transform="translate(652.02 2547.84) rotate(180)"/></g><g><rect class="cls-30" x="331.49" y="1277.32" width="5.56" height=".93" transform="translate(668.53 2555.58) rotate(180)"/><rect class="cls-30" x="323.23" y="1277.32" width="5.56" height=".93" transform="translate(652.02 2555.58) rotate(180)"/></g><g><rect class="cls-30" x="331.49" y="1281.2" width="5.56" height=".93" transform="translate(668.53 2563.33) rotate(180)"/><rect class="cls-30" x="323.23" y="1281.2" width="5.56" height=".93" transform="translate(652.02 2563.33) rotate(180)"/></g><g><rect class="cls-30" x="331.49" y="1285.07" width="5.56" height=".93" transform="translate(668.53 2571.08) rotate(180)"/><rect class="cls-30" x="323.23" y="1285.07" width="5.56" height=".93" transform="translate(652.02 2571.08) rotate(180)"/></g><g><rect class="cls-30" x="331.49" y="1288.94" width="5.56" height=".93" transform="translate(668.53 2578.82) rotate(180)"/><rect class="cls-30" x="323.23" y="1288.94" width="5.56" height=".93" transform="translate(652.02 2578.82) rotate(180)"/></g><g><rect class="cls-30" x="331.49" y="1292.82" width="5.56" height=".93" transform="translate(668.53 2586.57) rotate(180)"/><rect class="cls-30" x="323.23" y="1292.82" width="5.56" height=".93" transform="translate(652.02 2586.57) rotate(180)"/></g><g><rect class="cls-30" x="331.49" y="1296.69" width="5.56" height=".93" transform="translate(668.53 2594.31) rotate(180)"/><rect class="cls-30" x="323.23" y="1296.69" width="5.56" height=".93" transform="translate(652.02 2594.31) rotate(180)"/></g><g><rect class="cls-30" x="331.49" y="1300.56" width="5.56" height=".93" transform="translate(668.53 2602.06) rotate(180)"/><rect class="cls-30" x="323.23" y="1300.56" width="5.56" height=".93" transform="translate(652.02 2602.06) rotate(180)"/></g></g><g><g><rect class="cls-30" x="260.52" y="1247.11" width="20.83" height="64.69" transform="translate(541.87 2558.91) rotate(180)"/><rect class="cls-30" x="260.52" y="1247.11" width="2.83" height="64.69"/></g><g><rect class="cls-30" x="273.9" y="1254.09" width="5.56" height=".93" transform="translate(553.35 2509.11) rotate(180)"/><rect class="cls-30" x="265.64" y="1254.09" width="5.56" height=".93" transform="translate(536.84 2509.11) rotate(180)"/></g><g><rect class="cls-30" x="273.9" y="1261.83" width="5.56" height=".93" transform="translate(553.35 2524.6) rotate(180)"/><rect class="cls-30" x="265.64" y="1261.83" width="5.56" height=".93" transform="translate(536.84 2524.6) rotate(180)"/></g><g><rect class="cls-30" x="273.9" y="1265.71" width="5.56" height=".93" transform="translate(553.35 2532.35) rotate(180)"/><rect class="cls-30" x="265.64" y="1265.71" width="5.56" height=".93" transform="translate(536.84 2532.35) rotate(180)"/></g><g><rect class="cls-30" x="273.9" y="1269.58" width="5.56" height=".93" transform="translate(553.35 2540.09) rotate(180)"/><rect class="cls-30" x="265.64" y="1269.58" width="5.56" height=".93" transform="translate(536.84 2540.09) rotate(180)"/></g><g><rect class="cls-30" x="273.9" y="1273.45" width="5.56" height=".93" transform="translate(553.35 2547.84) rotate(180)"/><rect class="cls-30" x="265.64" y="1273.45" width="5.56" height=".93" transform="translate(536.84 2547.84) rotate(180)"/></g><g><rect class="cls-30" x="273.9" y="1277.32" width="5.56" height=".93" transform="translate(553.35 2555.58) rotate(180)"/><rect class="cls-30" x="265.64" y="1277.32" width="5.56" height=".93" transform="translate(536.84 2555.58) rotate(180)"/></g><g><rect class="cls-30" x="273.9" y="1281.2" width="5.56" height=".93" transform="translate(553.35 2563.33) rotate(180)"/><rect class="cls-30" x="265.64" y="1281.2" width="5.56" height=".93" transform="translate(536.84 2563.33) rotate(180)"/></g><g><rect class="cls-30" x="273.9" y="1285.07" width="5.56" height=".93" transform="translate(553.35 2571.08) rotate(180)"/><rect class="cls-30" x="265.64" y="1285.07" width="5.56" height=".93" transform="translate(536.84 2571.08) rotate(180)"/></g><g><rect class="cls-30" x="273.9" y="1288.94" width="5.56" height=".93" transform="translate(553.35 2578.82) rotate(180)"/><rect class="cls-30" x="265.64" y="1288.94" width="5.56" height=".93" transform="translate(536.84 2578.82) rotate(180)"/></g><g><rect class="cls-30" x="273.9" y="1292.82" width="5.56" height=".93" transform="translate(553.35 2586.57) rotate(180)"/><rect class="cls-30" x="265.64" y="1292.82" width="5.56" height=".93" transform="translate(536.84 2586.57) rotate(180)"/></g><g><rect class="cls-30" x="273.9" y="1296.69" width="5.56" height=".93" transform="translate(553.35 2594.31) rotate(180)"/><rect class="cls-30" x="265.64" y="1296.69" width="5.56" height=".93" transform="translate(536.84 2594.31) rotate(180)"/></g><g><rect class="cls-30" x="273.9" y="1300.56" width="5.56" height=".93" transform="translate(553.35 2602.06) rotate(180)"/><rect class="cls-30" x="265.64" y="1300.56" width="5.56" height=".93" transform="translate(536.84 2602.06) rotate(180)"/></g></g></g></g><g><g><rect class="cls-30" x="433.28" y="1348.89" width="20.83" height="64.69" transform="translate(887.4 2762.46) rotate(180)"/><rect class="cls-30" x="448.94" y="1348.89" width="5.17" height="64.69"/></g><g><rect class="cls-30" x="375.69" y="1348.89" width="20.83" height="64.69" transform="translate(772.22 2762.46) rotate(180)"/><rect class="cls-30" x="391.35" y="1348.89" width="5.17" height="64.69"/></g><g><rect class="cls-30" x="318.11" y="1348.89" width="20.83" height="64.69" transform="translate(657.05 2762.46) rotate(180)"/><rect class="cls-30" x="333.77" y="1348.89" width="5.17" height="64.69"/></g><g><rect class="cls-30" x="262.22" y="1348.89" width="20.83" height="64.69" transform="translate(545.26 2762.46) rotate(180)"/><rect class="cls-30" x="277.88" y="1348.89" width="5.17" height="64.69"/></g><g><rect class="cls-30" x="204.63" y="1348.89" width="20.83" height="64.69" transform="translate(430.09 2762.46) rotate(180)"/><rect class="cls-30" x="220.29" y="1348.89" width="5.17" height="64.69"/></g></g><g><g><rect class="cls-30" x="642.32" y="1348.89" width="20.83" height="64.69" transform="translate(1305.48 2762.46) rotate(180)"/><rect class="cls-30" x="657.98" y="1348.89" width="5.17" height="64.69"/></g><g><rect class="cls-30" x="527.15" y="1348.89" width="20.83" height="64.69" transform="translate(1075.13 2762.46) rotate(180)"/><rect class="cls-30" x="542.81" y="1348.89" width="5.17" height="64.69"/></g><g><g><rect class="cls-30" x="584.74" y="1348.89" width="20.83" height="64.69" transform="translate(1190.3 2762.46) rotate(180)"/><rect class="cls-30" x="584.74" y="1348.89" width="2.83" height="64.69"/></g><g><rect class="cls-30" x="598.11" y="1355.86" width="5.56" height=".93" transform="translate(1201.78 2712.66) rotate(180)"/><rect class="cls-30" x="589.86" y="1355.86" width="5.56" height=".93" transform="translate(1185.28 2712.66) rotate(180)"/></g><g><rect class="cls-30" x="598.11" y="1359.74" width="5.56" height=".93" transform="translate(1201.78 2720.41) rotate(180)"/><rect class="cls-30" x="589.86" y="1359.74" width="5.56" height=".93" transform="translate(1185.28 2720.41) rotate(180)"/></g><g><rect class="cls-30" x="598.11" y="1363.61" width="5.56" height=".93" transform="translate(1201.78 2728.15) rotate(180)"/><rect class="cls-30" x="589.86" y="1363.61" width="5.56" height=".93" transform="translate(1185.28 2728.15) rotate(180)"/></g><g><rect class="cls-30" x="598.11" y="1367.48" width="5.56" height=".93" transform="translate(1201.78 2735.9) rotate(180)"/><rect class="cls-30" x="589.86" y="1367.48" width="5.56" height=".93" transform="translate(1185.28 2735.9) rotate(180)"/></g><g><rect class="cls-30" x="598.11" y="1371.36" width="5.56" height=".93" transform="translate(1201.78 2743.65) rotate(180)"/><rect class="cls-30" x="589.86" y="1371.36" width="5.56" height=".93" transform="translate(1185.28 2743.65) rotate(180)"/></g><g><rect class="cls-30" x="598.11" y="1375.23" width="5.56" height=".93" transform="translate(1201.78 2751.39) rotate(180)"/><rect class="cls-30" x="589.86" y="1375.23" width="5.56" height=".93" transform="translate(1185.28 2751.39) rotate(180)"/></g><g><rect class="cls-30" x="598.11" y="1379.1" width="5.56" height=".93" transform="translate(1201.78 2759.14) rotate(180)"/><rect class="cls-30" x="589.86" y="1379.1" width="5.56" height=".93" transform="translate(1185.28 2759.14) rotate(180)"/></g><g><rect class="cls-30" x="598.11" y="1382.97" width="5.56" height=".94" transform="translate(1201.78 2766.88) rotate(180)"/><rect class="cls-30" x="589.86" y="1382.97" width="5.56" height=".94" transform="translate(1185.28 2766.88) rotate(180)"/></g><g><rect class="cls-30" x="598.11" y="1386.85" width="5.56" height=".93" transform="translate(1201.78 2774.63) rotate(180)"/><rect class="cls-30" x="589.86" y="1386.85" width="5.56" height=".93" transform="translate(1185.28 2774.63) rotate(180)"/></g><g><rect class="cls-30" x="598.11" y="1390.72" width="5.56" height=".93" transform="translate(1201.78 2782.38) rotate(180)"/><rect class="cls-30" x="589.86" y="1390.72" width="5.56" height=".93" transform="translate(1185.28 2782.38) rotate(180)"/></g><g><rect class="cls-30" x="598.11" y="1394.59" width="5.56" height=".93" transform="translate(1201.78 2790.12) rotate(180)"/><rect class="cls-30" x="589.86" y="1394.59" width="5.56" height=".93" transform="translate(1185.28 2790.12) rotate(180)"/></g><g><rect class="cls-30" x="598.11" y="1398.47" width="5.56" height=".94" transform="translate(1201.78 2797.87) rotate(180)"/><rect class="cls-30" x="589.86" y="1398.47" width="5.56" height=".94" transform="translate(1185.28 2797.87) rotate(180)"/></g><g><rect class="cls-30" x="598.11" y="1402.34" width="5.56" height=".93" transform="translate(1201.78 2805.61) rotate(180)"/><rect class="cls-30" x="589.86" y="1402.34" width="5.56" height=".93" transform="translate(1185.28 2805.61) rotate(180)"/></g></g></g><g><rect class="cls-30" x="325.84" y="1049.58" width="15.28" height="80.75" transform="translate(666.95 2179.91) rotate(180)"/><rect class="cls-30" x="340.36" y="1049.58" width="14.15" height="80.75" transform="translate(694.87 2179.91) rotate(180)"/></g><g><rect class="cls-30" x="442.24" y="1071.1" width="11.21" height="59.24" transform="translate(895.69 2201.43) rotate(180)"/><rect class="cls-30" x="452.9" y="1071.1" width="10.38" height="59.24" transform="translate(916.17 2201.43) rotate(180)"/></g><g><g><g><rect class="cls-30" x="433.28" y="1348.89" width="20.83" height="64.69" transform="translate(887.4 2762.46) rotate(180)"/><rect class="cls-30" x="433.28" y="1348.89" width="2.83" height="64.69"/></g><g><rect class="cls-30" x="446.66" y="1355.86" width="5.56" height=".93" transform="translate(898.88 2712.66) rotate(180)"/><rect class="cls-30" x="438.41" y="1355.86" width="5.56" height=".93" transform="translate(882.37 2712.66) rotate(180)"/></g><g><rect class="cls-30" x="446.66" y="1359.74" width="5.56" height=".93" transform="translate(898.88 2720.41) rotate(180)"/><rect class="cls-30" x="438.41" y="1359.74" width="5.56" height=".93" transform="translate(882.37 2720.41) rotate(180)"/></g><g><rect class="cls-30" x="446.66" y="1363.61" width="5.56" height=".93" transform="translate(898.88 2728.15) rotate(180)"/><rect class="cls-30" x="438.41" y="1363.61" width="5.56" height=".93" transform="translate(882.37 2728.15) rotate(180)"/></g><g><rect class="cls-30" x="446.66" y="1367.48" width="5.56" height=".93" transform="translate(898.88 2735.9) rotate(180)"/><rect class="cls-30" x="438.41" y="1367.48" width="5.56" height=".93" transform="translate(882.37 2735.9) rotate(180)"/></g><g><rect class="cls-30" x="446.66" y="1371.36" width="5.56" height=".93" transform="translate(898.88 2743.65) rotate(180)"/><rect class="cls-30" x="438.41" y="1371.36" width="5.56" height=".93" transform="translate(882.37 2743.65) rotate(180)"/></g><g><rect class="cls-30" x="446.66" y="1375.23" width="5.56" height=".93" transform="translate(898.88 2751.39) rotate(180)"/><rect class="cls-30" x="438.41" y="1375.23" width="5.56" height=".93" transform="translate(882.37 2751.39) rotate(180)"/></g><g><rect class="cls-30" x="446.66" y="1379.1" width="5.56" height=".93" transform="translate(898.88 2759.14) rotate(180)"/><rect class="cls-30" x="438.41" y="1379.1" width="5.56" height=".93" transform="translate(882.37 2759.14) rotate(180)"/></g><g><rect class="cls-30" x="446.66" y="1382.97" width="5.56" height=".93" transform="translate(898.88 2766.88) rotate(180)"/><rect class="cls-30" x="438.41" y="1382.97" width="5.56" height=".93" transform="translate(882.37 2766.88) rotate(180)"/></g><g><rect class="cls-30" x="446.66" y="1386.85" width="5.56" height=".93" transform="translate(898.88 2774.63) rotate(180)"/><rect class="cls-30" x="438.41" y="1386.85" width="5.56" height=".93" transform="translate(882.37 2774.63) rotate(180)"/></g><g><rect class="cls-30" x="446.66" y="1390.72" width="5.56" height=".93" transform="translate(898.88 2782.38) rotate(180)"/><rect class="cls-30" x="438.41" y="1390.72" width="5.56" height=".93" transform="translate(882.37 2782.38) rotate(180)"/></g><g><rect class="cls-30" x="446.66" y="1394.59" width="5.56" height=".93" transform="translate(898.88 2790.12) rotate(180)"/><rect class="cls-30" x="438.41" y="1394.59" width="5.56" height=".93" transform="translate(882.37 2790.12) rotate(180)"/></g><g><rect class="cls-30" x="446.66" y="1398.47" width="5.56" height=".93" transform="translate(898.88 2797.87) rotate(180)"/><rect class="cls-30" x="438.41" y="1398.47" width="5.56" height=".93" transform="translate(882.37 2797.87) rotate(180)"/></g><g><rect class="cls-30" x="446.66" y="1402.34" width="5.56" height=".94" transform="translate(898.88 2805.61) rotate(180)"/><rect class="cls-30" x="438.41" y="1402.34" width="5.56" height=".94" transform="translate(882.37 2805.61) rotate(180)"/></g></g><g><g><rect class="cls-30" x="318.11" y="1348.89" width="20.83" height="64.69" transform="translate(657.05 2762.46) rotate(180)"/><rect class="cls-30" x="318.11" y="1348.89" width="2.83" height="64.69"/></g><g><rect class="cls-30" x="331.49" y="1355.86" width="5.56" height=".93" transform="translate(668.53 2712.66) rotate(180)"/><rect class="cls-30" x="323.23" y="1355.86" width="5.56" height=".93" transform="translate(652.02 2712.66) rotate(180)"/></g><g><rect class="cls-30" x="331.49" y="1359.74" width="5.56" height=".93" transform="translate(668.53 2720.41) rotate(180)"/><rect class="cls-30" x="323.23" y="1359.74" width="5.56" height=".93" transform="translate(652.02 2720.41) rotate(180)"/></g><g><rect class="cls-30" x="331.49" y="1363.61" width="5.56" height=".93" transform="translate(668.53 2728.15) rotate(180)"/><rect class="cls-30" x="323.23" y="1363.61" width="5.56" height=".93" transform="translate(652.02 2728.15) rotate(180)"/></g><g><rect class="cls-30" x="331.49" y="1367.48" width="5.56" height=".93" transform="translate(668.53 2735.9) rotate(180)"/><rect class="cls-30" x="323.23" y="1367.48" width="5.56" height=".93" transform="translate(652.02 2735.9) rotate(180)"/></g><g><rect class="cls-30" x="331.49" y="1371.36" width="5.56" height=".93" transform="translate(668.53 2743.65) rotate(180)"/><rect class="cls-30" x="323.23" y="1371.36" width="5.56" height=".93" transform="translate(652.02 2743.65) rotate(180)"/></g><g><rect class="cls-30" x="331.49" y="1375.23" width="5.56" height=".93" transform="translate(668.53 2751.39) rotate(180)"/><rect class="cls-30" x="323.23" y="1375.23" width="5.56" height=".93" transform="translate(652.02 2751.39) rotate(180)"/></g><g><rect class="cls-30" x="331.49" y="1379.1" width="5.56" height=".93" transform="translate(668.53 2759.14) rotate(180)"/><rect class="cls-30" x="323.23" y="1379.1" width="5.56" height=".93" transform="translate(652.02 2759.14) rotate(180)"/></g><g><rect class="cls-30" x="331.49" y="1382.97" width="5.56" height=".93" transform="translate(668.53 2766.88) rotate(180)"/><rect class="cls-30" x="323.23" y="1382.97" width="5.56" height=".93" transform="translate(652.02 2766.88) rotate(180)"/></g><g><rect class="cls-30" x="331.49" y="1386.85" width="5.56" height=".93" transform="translate(668.53 2774.63) rotate(180)"/><rect class="cls-30" x="323.23" y="1386.85" width="5.56" height=".93" transform="translate(652.02 2774.63) rotate(180)"/></g><g><rect class="cls-30" x="331.49" y="1390.72" width="5.56" height=".93" transform="translate(668.53 2782.38) rotate(180)"/><rect class="cls-30" x="323.23" y="1390.72" width="5.56" height=".93" transform="translate(652.02 2782.38) rotate(180)"/></g><g><rect class="cls-30" x="331.49" y="1394.59" width="5.56" height=".93" transform="translate(668.53 2790.12) rotate(180)"/><rect class="cls-30" x="323.23" y="1394.59" width="5.56" height=".93" transform="translate(652.02 2790.12) rotate(180)"/></g><g><rect class="cls-30" x="331.49" y="1398.47" width="5.56" height=".93" transform="translate(668.53 2797.87) rotate(180)"/><rect class="cls-30" x="323.23" y="1398.47" width="5.56" height=".93" transform="translate(652.02 2797.87) rotate(180)"/></g><g><rect class="cls-30" x="331.49" y="1402.34" width="5.56" height=".94" transform="translate(668.53 2805.61) rotate(180)"/><rect class="cls-30" x="323.23" y="1402.34" width="5.56" height=".94" transform="translate(652.02 2805.61) rotate(180)"/></g></g></g></g><g><g><rect class="cls-28" x="1722.89" y="579.25" width="17.77" height="158.94" transform="translate(3463.54 1317.45) rotate(180)"/><rect class="cls-23" x="1739.78" y="579.25" width="16.46" height="158.94" transform="translate(3496.01 1317.45) rotate(180)"/></g><polygon class="cls-23" points="1832.89 802.35 1673.19 602.8 1513.49 802.35 1513.49 1241.25 1832.89 1241.25 1832.89 802.35"/><g><g><rect class="cls-28" x="1724.7" y="813.11" width="47.93" height="53.67" transform="translate(3497.33 1679.88) rotate(180)"/><rect class="cls-28" x="1762.6" y="813.11" width="10.03" height="53.67"/></g><g><rect class="cls-28" x="1649.23" y="813.11" width="47.93" height="53.67" transform="translate(3346.38 1679.88) rotate(180)"/><rect class="cls-28" x="1687.12" y="813.11" width="10.03" height="53.67"/></g><g><rect class="cls-28" x="1649.23" y="711.36" width="47.93" height="53.67" transform="translate(3346.38 1476.39) rotate(180)"/><rect class="cls-28" x="1687.12" y="711.36" width="10.03" height="53.67"/></g><g><rect class="cls-28" x="1573.75" y="813.11" width="47.93" height="53.67" transform="translate(3195.43 1679.88) rotate(180)"/><rect class="cls-28" x="1611.65" y="813.11" width="10.03" height="53.67"/></g></g><g><g><rect class="cls-28" x="1724.7" y="919.28" width="47.93" height="53.67" transform="translate(3497.33 1892.22) rotate(180)"/><rect class="cls-28" x="1762.6" y="919.28" width="10.03" height="53.67"/></g><g><rect class="cls-28" x="1649.23" y="919.28" width="47.93" height="53.67" transform="translate(3346.38 1892.22) rotate(180)"/><rect class="cls-28" x="1687.12" y="919.28" width="10.03" height="53.67"/></g><g><rect class="cls-28" x="1573.75" y="919.28" width="47.93" height="53.67" transform="translate(3195.43 1892.22) rotate(180)"/><rect class="cls-28" x="1611.65" y="919.28" width="10.03" height="53.67"/></g></g><g><g><rect class="cls-28" x="1724.7" y="1025.45" width="47.93" height="53.67" transform="translate(3497.33 2104.57) rotate(180)"/><rect class="cls-28" x="1762.6" y="1025.45" width="10.03" height="53.67"/></g><g><rect class="cls-28" x="1649.23" y="1025.45" width="47.93" height="53.67" transform="translate(3346.38 2104.57) rotate(180)"/><rect class="cls-28" x="1687.12" y="1025.45" width="10.03" height="53.67"/></g><g><rect class="cls-28" x="1573.75" y="1025.45" width="47.93" height="53.67" transform="translate(3195.43 2104.57) rotate(180)"/><rect class="cls-28" x="1611.65" y="1025.45" width="10.03" height="53.67"/></g></g><g><g><rect class="cls-28" x="1724.7" y="1131.63" width="47.93" height="53.67" transform="translate(3497.33 2316.92) rotate(180)"/><rect class="cls-28" x="1762.6" y="1131.63" width="10.03" height="53.67"/></g><g><rect class="cls-28" x="1649.23" y="1131.63" width="47.93" height="53.67" transform="translate(3346.38 2316.92) rotate(180)"/><rect class="cls-28" x="1687.12" y="1131.63" width="10.03" height="53.67"/></g><g><rect class="cls-28" x="1573.75" y="1131.63" width="47.93" height="53.67" transform="translate(3195.43 2316.92) rotate(180)"/><rect class="cls-28" x="1611.65" y="1131.63" width="10.03" height="53.67"/></g></g></g><g><g><rect class="cls-28" x="1903.86" y="817.66" width="16.95" height="89.58" transform="translate(3824.67 1724.89) rotate(180)"/><rect class="cls-28" x="1919.97" y="817.66" width="15.7" height="89.58" transform="translate(3855.64 1724.89) rotate(180)"/></g><polygon class="cls-14" points="2078.75 1318.75 2326.51 1318.75 2326.51 1015.11 2202.63 864.21 2078.75 1015.11 2078.75 1318.75"/><polygon class="cls-22" points="1866.05 864.21 2202.63 864.21 2078.75 1015.11 2078.75 1318.75 1742.17 1318.75 1742.17 1015.11 1866.05 864.21"/><g class="cls-35"><polygon class="cls-8" points="1866.05 864.21 2202.63 864.21 2078.75 1015.11 1742.17 1015.11 1866.05 864.21"/></g><g class="cls-35"><polygon class="cls-8" points="2326.08 1115.83 2186.87 1115.83 2238.11 1178.23 2377.31 1178.23 2326.08 1115.83"/></g><g><g><rect class="cls-30" x="2018.18" y="1044.83" width="32.86" height="55.67"/><rect class="cls-30" x="2018.18" y="1091.48" width="32.86" height="9.02"/></g><g><rect class="cls-30" x="1955.15" y="1044.83" width="32.86" height="55.67"/><rect class="cls-30" x="1955.15" y="1091.48" width="32.86" height="9.02"/></g><g><rect class="cls-30" x="1892.11" y="1044.83" width="32.86" height="55.67"/><rect class="cls-30" x="1892.11" y="1091.48" width="32.86" height="9.02"/></g><g><rect class="cls-30" x="1829.08" y="1044.83" width="32.86" height="55.67"/><rect class="cls-30" x="1829.08" y="1091.48" width="32.86" height="9.02"/></g><g><rect class="cls-30" x="1766.04" y="1044.83" width="32.86" height="55.67"/><rect class="cls-30" x="1766.04" y="1091.48" width="32.86" height="9.02"/></g></g><g><g><rect class="cls-30" x="2018.18" y="1149.7" width="32.86" height="55.67"/><rect class="cls-30" x="2018.18" y="1196.35" width="32.86" height="9.02"/></g><g><rect class="cls-30" x="1955.15" y="1149.7" width="32.86" height="55.67"/><rect class="cls-30" x="1955.15" y="1196.35" width="32.86" height="9.02"/></g><g><rect class="cls-30" x="1892.11" y="1149.7" width="32.86" height="55.67"/><rect class="cls-30" x="1892.11" y="1196.35" width="32.86" height="9.02"/></g><g><rect class="cls-30" x="1829.08" y="1149.7" width="32.86" height="55.67"/><rect class="cls-30" x="1829.08" y="1196.35" width="32.86" height="9.02"/></g><g><rect class="cls-30" x="1766.04" y="1149.7" width="32.86" height="55.67"/><rect class="cls-30" x="1766.04" y="1196.35" width="32.86" height="9.02"/></g></g><g><rect class="cls-28" x="2033" y="841.52" width="12.43" height="65.71" transform="translate(4078.43 1748.75) rotate(180)"/><rect class="cls-28" x="2044.82" y="841.52" width="11.51" height="65.71" transform="translate(4101.15 1748.75) rotate(180)"/></g><g><g><rect class="cls-30" x="2249.23" y="1044.83" width="32.86" height="55.67"/><rect class="cls-30" x="2249.23" y="1091.48" width="32.86" height="9.02"/></g><g><rect class="cls-30" x="2186.2" y="1044.83" width="32.86" height="55.67"/><rect class="cls-30" x="2186.2" y="1091.48" width="32.86" height="9.02"/></g><g><rect class="cls-30" x="2123.16" y="1044.83" width="32.86" height="55.67"/><rect class="cls-30" x="2123.16" y="1091.48" width="32.86" height="9.02"/></g></g><polygon class="cls-28" points="2186.87 1115.83 2186.87 1318.75 2237.14 1318.75 2237.14 1178.23 2186.87 1115.83"/></g><g><path class="cls-27" d="M1678.21,1134.5c1.66-32.32,31.03-31.54,34.66-55.57,2.12-14.04-9.7-28.96-9.7-45.59,0-50.01,31.98-90.56,71.44-90.56h0c28.83,0,61.19,27.18,61.19,77.19,0,16.62-17.63,44.91-16.07,58.95,2.65,24.03,20.33,49.88,20.33,82.24,0,62.7-29.3,113.53-65.44,113.53h0c-49.46,0-101.56-39.45-96.4-140.2Z"/><rect class="cls-27" x="1758.95" y="1196.13" width="12.18" height="157.12"/><rect class="cls-33" x="1634.2" y="1140.4" width="264.48" height="4.13" transform="translate(605.35 2896.71) rotate(-89.39)"/><polygon class="cls-33" points="1765.82 1123.82 1811.87 1011.01 1808.05 1009.45 1766.04 1112.36 1748.85 1065.24 1744.97 1066.66 1765.82 1123.82"/><polygon class="cls-33" points="1766.11 1187.34 1825.79 1136 1823.1 1132.87 1766.77 1181.32 1718.67 1116.85 1715.36 1119.32 1766.11 1187.34"/><polygon class="cls-33" points="1765.43 1247.44 1825.83 1192.64 1823.06 1189.58 1765.28 1242 1691.88 1182.72 1689.29 1185.94 1765.43 1247.44"/></g></g><g><path class="cls-26" d="M699.07,1214.02c-26.22,9.57-79.4,141.64-65.88,204.8,13.52,63.16,65.88,67.95,65.88,67.95,0,0,52.36-4.79,65.88-67.95,13.52-63.16-39.65-195.23-65.88-204.8Z"/><polygon class="cls-25" points="751.58 1379.64 706.55 1432.1 703.64 1363.26 736.74 1297.63 703.18 1352.28 699.07 1255.14 694.96 1352.28 661.4 1297.63 694.49 1363.26 691.58 1432.1 646.55 1379.64 691.07 1444.34 687.63 1525.68 699.07 1525.68 710.51 1525.68 707.07 1444.34 751.58 1379.64"/></g><g><path class="cls-26" d="M2386.93,1325.38c-26.22,9.57-79.4,141.64-65.88,204.8,13.52,63.16,65.88,67.95,65.88,67.95,0,0,52.36-4.79,65.88-67.95,13.52-63.16-39.65-195.23-65.88-204.8Z"/><polygon class="cls-25" points="2439.45 1491 2394.42 1543.46 2391.51 1474.61 2424.61 1408.98 2391.04 1463.63 2386.93 1366.5 2382.83 1463.63 2349.26 1408.98 2382.36 1474.61 2379.45 1543.46 2334.42 1491 2378.93 1555.69 2375.49 1637.03 2386.93 1637.03 2398.38 1637.03 2394.94 1555.69 2439.45 1491"/></g><g><path class="cls-26" d="M2149.3,1162.92c-26.22,9.57-79.4,141.64-65.88,204.8,13.52,63.16,65.88,67.95,65.88,67.95,0,0,52.36-4.79,65.88-67.95,13.52-63.16-39.65-195.23-65.88-204.8Z"/><polygon class="cls-25" points="2201.81 1328.54 2156.78 1381 2153.87 1312.16 2186.97 1246.52 2153.41 1301.18 2149.3 1204.04 2145.19 1301.18 2111.63 1246.52 2144.72 1312.16 2141.81 1381 2096.78 1328.54 2141.3 1393.23 2137.86 1474.57 2149.3 1474.57 2160.74 1474.57 2157.3 1393.23 2201.81 1328.54"/></g></g></g><path class="cls-31" d="M1271.46,2200.88c1.24,0,.93-503.64,2.56-507.87,.54-2.2,1.26-4.39,2.1-6.5,5.53-8.47,13.84-7.13,22.39-7.01,44.98,.62,78.86,25.04,111.54,51.72,34.24,27.95,70.66,47.84,117.24,46.34,38.59-1.24,71.45-14.11,101.23-37.21,10.67-8.28,21.14-16.8,31.86-25.02,71.17-54.57,162.73-49.3,230.65,9.1,25.51,21.94,52.43,41.93,86.36,49.02,36.9,7.71,72.84,5.03,107.37-11.19,8.5-3.99,29.44-44.8,39.96-39.96,8.96,11.53-16.44,50.66-22.26,59.36-21.45,32.1-302.97,416.74-831.01,420.45"/><path class="cls-29" d="M1278.88,2199.64c0-1.24,2.47-514.44,.96-515.78-12.21-11.36-26.63-7.67-40.25-4.9-36.55,7.42-65.55,28.97-92.94,52.62-44.7,38.59-95.8,50.23-152.89,38.01-31.4-6.72-54.76-27.49-79.12-46.33-22.97-17.77-46.13-35.5-75.09-42.11-64.37-14.68-122.01-1.75-172.56,42.17-21.78,18.92-44.5,37.96-73.45,44.83-40.99,9.72-81.53,8.93-120.24-10.84-8.07-4.12-16.66-11.46-26.33-2.5,49.21,79.44,264.15,447.3,831.9,447.3"/><path class="cls-13" d="M851.85,1490.87c-.2-66.01-.4-132.02-.61-198.03-6.64-9.92-9.04-20.94-8.71-32.75,.75-26.76-2.12-53.63,2.52-80.22-.84-11.38,5.35-19.54,12.84-26.94,54.98-54.33,110.85-107.73,167.22-160.61,38.05-35.69,74.99-72.58,112.59-108.74,38.53-37.06,77.94-73.22,115.99-110.79,8.09-7.99,16.82-20.2,30.71-7.39,4.88,10.33,4.54,21.35,4.54,32.29,.07,133.35,.13,266.71-.08,400.06-.02,11.43,1.72,23.39-5.84,33.61-6.79,7.43-15.89,7.56-24.93,7.73-24.42,.46-48.84,.12-73.27,.23-33.85,.15-35.07,1.23-35.11,34.33-.09,74.55-.1,149.11,.04,223.66,.03,14.17-.54,28.24-3.02,42.18-1.17,11.49-9.3,17.83-17.89,23.71-51.75,35.45-133.54,40.06-197.09-6.92-23.2-17.15-44.61-36.76-70.35-50.44-5.52-2.94-11.15-6.95-9.58-14.97Z"/><path class="cls-15" d="M851.85,1490.87c29.72,14.49,54.66,35.85,80.72,55.7,63.83,48.63,150.01,47.29,208.44-2.62,29.32-42.76,70.69-64.59,121.59-69.3,9.16-.85,17.87,1.8,22.9,10.95,3.42,5.89,3.19,12.45,3.24,18.84,.45,51.53,.34,103.05,.09,154.58-.04,9.14-.5,18.14-8.17,24.76-.29,.85-.56,1.7-.81,2.56-52.53-3.47-92.31,23.12-129.43,55.4-47.57,41.37-102.3,51.78-162.39,37.63-31.02-7.3-55.33-27.2-78.63-47.46-48.42-42.11-103.48-55.27-165.35-40.27-28.91,7.01-52.69,24.1-74.29,43.49-51.04,45.81-109.13,61.27-175.24,42.31-16.42-4.71-31.72-13.33-47.53-20.15-54.4-85.29-95.95-176.27-121.51-274.34,36.6,4.12,66.53,22.1,94.06,45.14,29.83,24.97,61.23,46.46,101.33,51.93,47.7,6.51,90.5-4.1,128.71-33.32,5.62-4.3,11.43-8.41,16.62-13.18,53.82-49.46,115.64-63.84,185.66-42.67Z"/><path class="cls-10" d="M2236.83,1479.32c-.33,1.11-.78,2.17-1.36,3.17-4.49,4.59-8.76,9.43-15.42,11.08-31.46,7.78-58,25.16-81.27,46.39-71.15,64.88-177.74,66.89-253.15-3.6-43.99-41.12-96.15-54.52-155.11-42.95-9.29,1.82-19.49,3.74-26.1-6.69-3.18-5.97-2.91-12.52-2.94-18.89-.36-91.34-.42-182.69,0-274.03,.02-4.5,.23-9.01,1.21-13.37,5.44-13.68,14.38-10.61,22.81-3.82,12.99,10.47,26.38,20.59,37.82,32.82,7.33,7.84,13.57,7.62,20.93-.12,25.66-27.01,53.74-51.68,77.98-80.07,5.12-6,10.41-11.31,18.01-13.88,58.55,58.99,117.02,118.06,175.68,176.95,55.49,55.71,111.18,111.22,166.76,166.85,5.88,5.89,12.68,11.18,14.16,20.18Z"/><path class="cls-20" d="M1880.23,1115.34c-3.45,13.1-13.77,21.32-22.46,30.43-24.35,25.52-49.7,50.09-73.72,75.91-7.88,8.47-12.28,7.63-19.86,.27-17.44-16.95-35.73-33.03-53.68-49.46-10.48,1.02-16.33-6.46-22.71-12.64-73.01-70.68-146.47-140.9-219.89-211.14-50.18-48.01-99.1-97.36-150.73-143.86-17.25-15.53-31.58-33.41-43.98-53.01-2.76-61.41-.97-122.8-1.03-184.18,0-9.25,3.25-17.5,8.61-24.97,21.74,20.04,43.83,39.71,65.17,60.17,175.76,168.62,351.38,337.38,527.05,506.08,2.32,2.23,4.82,4.27,7.23,6.4Z"/><path class="cls-8" d="M1280.78,542.69c-.06,71.94-.13,143.88-.19,215.83-.15,2.64-2.42,3.01-4.19,3.92-87.94,84-175.92,167.96-263.79,252.02-48.83,46.72-97.52,93.58-146.16,140.5-5.52,5.32-10.29,11.42-15.41,17.16-15.83,25.01-34.57,46.93-62.64,58.93-11.46-3.55-15.63-14.87-23.29-22.39-25.3-24.83-49.99-50.28-74.47-75.92-6.54-6.85-13.06-13.97-2.19-24.24,55.7-52.66,110.65-106.12,166.28-158.85,35.07-33.24,69.14-67.49,104.3-100.67,87.15-82.25,172.52-166.39,258.9-249.46,20.35-19.57,41.89-37.92,62.88-56.83Z"/><path class="cls-9" d="M788.38,1231.05c19.03-21.61,39.46-41.73,62.64-58.92,.07,40.23,.15,80.47,.22,120.71-22.98-18.54-42.89-40.19-62.87-61.79Z"/><path class="cls-17" d="M1711.27,1489.7c33.92-9.06,68.04-11.6,102.61-3.75,31.06,7.05,56.15,24.87,79.4,45.16,42.27,36.87,89.68,56.13,146.63,48.29,28.02-3.86,52.69-14.74,75.38-31.1,25.94-18.7,48.86-41.75,79.01-54.43,13.67-5.75,27.55-10.25,42.4-11.39-10.08,48.36-28.56,93.94-47.75,139.09-19.04,44.79-43.11,87.15-68.11,128.9-1.52,2.54-4.47,4.23-6.75,6.31-25.67,11.4-50.35,24.54-79.41,27.46-58.35,5.87-104.98-16.95-147.6-53.9-25.97-22.52-55.19-38.75-90.73-43.76-54.3-7.66-100.03,8.77-141.02,42.92-25.3,21.08-51.02,42-83.89,49.86-59.68,14.26-113.47,2.22-160.29-38.42-9.22-8-19.19-15.14-28.74-22.77-29.4-23.51-63.86-32.18-100.54-34.41-.09-67.18-.19-134.36-.29-201.54,.55-.86,1.09-1.73,1.62-2.6,11-8.26,23.17-5.51,35.05-3.29,37.19,6.96,66.82,27.95,94.58,52.07,3.86,3.35,7.05,7.34,12.15,8.91,42.99,33.91,91.43,41.72,143.88,29.83,29.89-6.78,53.16-25.28,76.06-44.16,13.46-11.09,27.59-21.14,42.77-29.69,7.31-4.12,14.79-8.41,23.56-3.6Z"/><path class="cls-5" d="M1710.03,1489.7c-38.67,17.28-67.6,48.87-103.41,70.38-55.9,33.59-136.02,26.71-185.76-16.15-9.7-10.36-9.68-23.33-9.7-36.27-.09-75.42,0-150.85-.04-226.27q-.02-42.04-41.18-42.09c-21.92-.04-43.84,.28-65.75-.22-7.65-.17-15.66,.47-21.87-5.6-.65-1.05-1.29-2.11-1.92-3.17,0-147.92,.04-295.84-.07-443.77,0-8.14,2.2-16.87-3.94-24.1,1.4-1.31,2.8-2.62,4.19-3.92,140.37,134.62,280.74,269.23,421.06,403.89,3.22,3.09,5.92,6.71,8.86,10.08-.16,105.74-.32,211.48-.48,317.22Z"/><path class="cls-28" d="M1280.37,1482.24c-44.17-2.97-80.24,15.72-113.46,42.23-8.44,6.74-17.26,13-25.9,19.48-.16-99.03-.08-198.06-.77-297.09-.09-13.33,4.83-15.9,16.78-15.81,41.12,.29,82.26-.42,123.38-.74,0,0,.02,1.5,.02,1.5,8.1,5.52,8.26,14.06,8.32,22.48,.44,68.22,.45,136.45,0,204.67-.06,8.47-.46,16.92-8.49,22.42l.13,.87Z"/><path class="cls-30" d="M1280.24,1481.37c.06-83.19,.12-166.38,.18-249.56,42.99-.31,85.98-.3,128.96-1.11,13.67-.26,11.73,8.51,11.73,16.65-.05,98.87-.15,197.73-.24,296.6-12.84-9.54-25.76-19-38.51-28.66-30.21-22.88-63.97-34.95-102.11-33.91Z"/></svg>