<?xml version="1.0" encoding="UTF-8"?><svg id="Calque_1" xmlns="http://www.w3.org/2000/svg" xmlns:xlink="http://www.w3.org/1999/xlink" viewBox="0 0 4488 1814"><defs><style>.cls-1,.cls-2{fill:none;}.cls-3{clip-path:url(#clippath);}.cls-4{fill:#fa8b6f;}.cls-5{fill:#f86545;}.cls-6{fill:#eac9c3;}.cls-7{fill:#fbd8cf;}.cls-8{fill:#e59e91;}.cls-9,.cls-10,.cls-11{fill:#ef7757;}.cls-12{fill:#fee8d6;}.cls-13{fill:#fff;}.cls-14{fill:#fefefe;}.cls-15{fill:#fbf4ed;}.cls-16{fill:#7e97ce;}.cls-17{fill:#8187bf;}.cls-18{fill:#687ea9;}.cls-19{fill:#8c0b00;}.cls-20{fill:#334781;}.cls-21{fill:#c16348;}.cls-22{fill:#ccc;}.cls-23{fill:#c6bfd8;}.cls-24{fill:#ddbfa8;}.cls-25{fill:#cc8f83;}.cls-26{fill:#12406c;}.cls-27{fill:#058b7d;}.cls-28{fill:#1b7a7a;}.cls-29{fill:#5b5b89;}.cls-30{fill:#5a71b4;}.cls-31{fill:#292574;}.cls-32{fill:#4b5d93;}.cls-33{fill:#5362a0;}.cls-34{fill:#24a3a3;}.cls-35{fill:#7b5783;}.cls-2{stroke:#ef7757;stroke-miterlimit:10;stroke-width:10px;}.cls-36,.cls-10{opacity:.55;}.cls-37{opacity:.8;}.cls-11{opacity:.4;}</style><clipPath id="clippath"><path class="cls-1" d="M957,1725c-801.16-10.4-816-810-809-806-3.58-129.46,8.74-234.36,151-481,38.21-66.24,17.69-257.15,84-318C717.08-186.59,1611-14,1611-14l37,501s195,279,80,651c-84.3,272.68-386,592-771,587Z"/></clipPath></defs><circle class="cls-12" cx="954.5" cy="907.5" r="807.5"/><g class="cls-37"><g class="cls-3"><path class="cls-13" d="M1427.04,398.33c-.98,1.12-1.94,2.24-2.91,3.36-.23-.53-.43-1.08-.66-1.61,1.2-.56,2.39-1.15,3.57-1.75Z"/><path class="cls-13" d="M1290.59,311c-.76-47.98-35.31-86.62-77.86-86.62-10.76,0-21.01,2.47-30.34,6.94-17.27-32.96-49-55.06-85.29-55.06-47.38,0-86.97,37.66-96.78,87.98-3.65-.88-7.43-1.36-11.31-1.36-25.83,0-47.41,20.62-52.61,48.12h354.19Z"/><polygon class="cls-27" points="916.13 1066.38 870.24 1019.28 911.83 1019.28 871.67 962.68 897.97 962.68 861.63 909.36 877.64 909.9 835.18 835.72 792.71 909.9 808.73 909.36 772.39 962.68 798.69 962.68 758.53 1019.28 800.12 1019.28 754.23 1066.38 828.13 1066.38 825.93 1118.6 835.18 1118.6 844.43 1118.6 842.22 1066.38 916.13 1066.38"/><g><path class="cls-27" d="M1226.93,911.6c-21.21,7.74-64.2,114.54-53.27,165.62,10.93,51.08,53.27,54.95,53.27,54.95,0,0,42.34-3.87,53.27-54.95,10.93-51.08-32.07-157.88-53.27-165.62Z"/><polygon class="cls-26" points="1269.4 1045.53 1232.98 1087.96 1230.63 1032.28 1257.4 979.21 1230.25 1023.41 1226.93 944.86 1223.61 1023.41 1196.47 979.21 1223.23 1032.28 1220.88 1087.96 1184.47 1045.53 1220.46 1097.85 1217.68 1163.62 1226.93 1163.62 1236.18 1163.62 1233.4 1097.85 1269.4 1045.53"/></g><path class="cls-22" d="M121,885.8s270.28-119.75,485.8-84.21c216.56,35.71,394.49,134.23,554.25,134.23s304.67-92.51,408.27-92.51,204.67,42.48,204.67,42.48v892.12H121V885.8Z"/><g><g><g><rect class="cls-17" x="832.99" y="208" width="13.73" height="119.53" transform="translate(1679.71 535.53) rotate(180)"/><rect class="cls-7" x="846.04" y="208" width="12.72" height="119.53" transform="translate(1704.81 535.53) rotate(180)"/></g><polygon class="cls-7" points="918 375.78 794.59 225.71 671.17 375.78 671.17 705.87 918 705.87 918 375.78"/><g><g><rect class="cls-33" x="834.39" y="383.87" width="37.04" height="40.36" transform="translate(1705.83 808.1) rotate(180)"/><rect class="cls-20" x="863.68" y="383.87" width="7.75" height="40.36"/></g><g><rect class="cls-33" x="776.07" y="383.87" width="37.04" height="40.36" transform="translate(1589.17 808.1) rotate(180)"/><rect class="cls-20" x="805.35" y="383.87" width="7.75" height="40.36"/></g><g><rect class="cls-33" x="776.07" y="307.35" width="37.04" height="40.36" transform="translate(1589.17 655.06) rotate(180)"/><rect class="cls-20" x="805.35" y="307.35" width="7.75" height="40.36"/></g><g><rect class="cls-33" x="717.74" y="383.87" width="37.04" height="40.36" transform="translate(1472.52 808.1) rotate(180)"/><rect class="cls-20" x="747.03" y="383.87" width="7.75" height="40.36"/></g></g><g><g><rect class="cls-33" x="834.39" y="463.72" width="37.04" height="40.36" transform="translate(1705.83 967.8) rotate(180)"/><rect class="cls-20" x="863.68" y="463.72" width="7.75" height="40.36"/></g><g><rect class="cls-33" x="776.07" y="463.72" width="37.04" height="40.36" transform="translate(1589.17 967.8) rotate(180)"/><rect class="cls-20" x="805.35" y="463.72" width="7.75" height="40.36"/></g><g><rect class="cls-33" x="717.74" y="463.72" width="37.04" height="40.36" transform="translate(1472.52 967.8) rotate(180)"/><rect class="cls-20" x="747.03" y="463.72" width="7.75" height="40.36"/></g></g><g><g><rect class="cls-33" x="834.39" y="543.57" width="37.04" height="40.36" transform="translate(1705.83 1127.5) rotate(180)"/><rect class="cls-20" x="863.68" y="543.57" width="7.75" height="40.36"/></g><g><rect class="cls-33" x="776.07" y="543.57" width="37.04" height="40.36" transform="translate(1589.17 1127.5) rotate(180)"/><rect class="cls-20" x="805.35" y="543.57" width="7.75" height="40.36"/></g><g><rect class="cls-33" x="717.74" y="543.57" width="37.04" height="40.36" transform="translate(1472.52 1127.5) rotate(180)"/><rect class="cls-20" x="747.03" y="543.57" width="7.75" height="40.36"/></g></g><g><g><rect class="cls-33" x="834.39" y="623.42" width="37.04" height="40.36" transform="translate(1705.83 1287.2) rotate(180)"/><rect class="cls-20" x="863.68" y="623.42" width="7.75" height="40.36"/></g><g><rect class="cls-33" x="776.07" y="623.42" width="37.04" height="40.36" transform="translate(1589.17 1287.2) rotate(180)"/><rect class="cls-20" x="805.35" y="623.42" width="7.75" height="40.36"/></g><g><rect class="cls-33" x="717.74" y="623.42" width="37.04" height="40.36" transform="translate(1472.52 1287.2) rotate(180)"/><rect class="cls-20" x="747.03" y="623.42" width="7.75" height="40.36"/></g></g><polygon class="cls-5" points="671.18 375.78 671.18 393.89 794.58 243.83 917.99 393.89 917.99 375.78 794.58 225.71 671.18 375.78"/><rect class="cls-19" x="671.18" y="705.87" width="246.82" height="18.12"/></g><g><g><g><rect class="cls-14" x="428.55" y="295.98" width="52.21" height="246.73" transform="translate(909.31 838.69) rotate(180)"/><rect class="cls-6" x="398.61" y="295.98" width="41.51" height="246.73" transform="translate(838.73 838.69) rotate(180)"/></g><g><polygon class="cls-9" points="440.12 295.98 393.06 295.98 393.06 277.78 440.12 128.96 440.12 295.98"/><polygon class="cls-25" points="440.12 295.98 487.19 295.98 487.19 277.78 440.12 128.96 440.12 295.98"/></g><g><circle class="cls-29" cx="461.67" cy="377.58" r="12.44" transform="translate(-74.07 115.5) rotate(-13.21)"/><path class="cls-29" d="M469.27,377.58c0-6.04-4.31-11.08-10.02-12.21,.78-.15,1.59-.24,2.42-.24,6.87,0,12.44,5.57,12.44,12.44s-5.57,12.44-12.44,12.44c-.83,0-1.64-.08-2.42-.24,5.71-1.13,10.02-6.16,10.02-12.21Z"/></g></g><polygon class="cls-15" points="615.18 837.34 836.82 837.34 836.82 647.67 726 512.69 615.18 647.67 615.18 837.34"/><polygon class="cls-23" points="257.95 512.69 726 512.69 615.18 647.67 615.18 837.34 147.13 837.34 147.13 647.67 257.95 512.69"/><polygon class="cls-25" points="257.95 512.69 726 512.69 615.18 647.67 147.13 647.67 257.95 512.69"/><g><g><rect class="cls-31" x="772.82" y="667.07" width="20.67" height="64.2" transform="translate(1566.31 1398.34) rotate(180)"/><rect class="cls-31" x="788.36" y="667.07" width="5.13" height="64.2"/></g><g><rect class="cls-31" x="715.67" y="667.07" width="20.67" height="64.2" transform="translate(1452.01 1398.34) rotate(180)"/><rect class="cls-31" x="731.21" y="667.07" width="5.13" height="64.2"/></g><g><rect class="cls-31" x="658.52" y="667.07" width="20.67" height="64.2" transform="translate(1337.71 1398.34) rotate(180)"/><rect class="cls-31" x="674.06" y="667.07" width="5.13" height="64.2"/></g></g><polygon class="cls-31" points="286.66 778.4 458.3 778.4 458.3 650.01 372.48 545.48 286.66 650.01 286.66 778.4"/><g><g><rect class="cls-29" x="515.08" y="668.8" width="39.84" height="78.63" transform="translate(1069.99 1416.22) rotate(180)"/><rect class="cls-29" x="545.03" y="668.8" width="9.89" height="78.63"/></g><g><rect class="cls-23" x="404.94" y="668.8" width="39.84" height="78.63" transform="translate(849.73 1416.22) rotate(180)"/><rect class="cls-23" x="434.89" y="668.8" width="9.89" height="78.63"/></g><g><rect class="cls-23" x="294.81" y="668.8" width="39.84" height="78.63" transform="translate(629.46 1416.22) rotate(180)"/><rect class="cls-23" x="324.76" y="668.8" width="9.89" height="78.63"/></g><g><rect class="cls-29" x="187.92" y="668.8" width="39.84" height="78.63" transform="translate(415.68 1416.22) rotate(180)"/><rect class="cls-29" x="217.87" y="668.8" width="9.89" height="78.63"/></g></g><g><rect class="cls-35" x="304.05" y="471.04" width="15.16" height="80.13" transform="translate(623.26 1022.21) rotate(180)"/><rect class="cls-15" x="318.46" y="471.04" width="14.04" height="80.13" transform="translate(650.96 1022.21) rotate(180)"/></g><g><rect class="cls-35" x="574.26" y="492.39" width="11.12" height="58.79" transform="translate(1159.63 1043.56) rotate(180)"/><rect class="cls-15" x="584.83" y="492.39" width="10.3" height="58.79" transform="translate(1179.96 1043.56) rotate(180)"/></g><polygon class="cls-4" points="458.3 650.01 535.6 545.48 371.42 545.48 458.3 650.01"/></g><g><polygon class="cls-15" points="309.8 1152.27 490.4 1152.27 490.4 930.93 400.1 820.94 309.8 930.93 309.8 1152.27"/><polygon class="cls-23" points="154.76 820.94 400.1 820.94 309.8 930.93 309.8 1152.27 64.46 1152.27 64.46 930.93 154.76 820.94"/><polygon class="cls-8" points="154.76 820.94 400.1 820.94 309.8 930.93 64.46 930.93 154.76 820.94"/><g><g><g><rect class="cls-29" x="438.25" y="946.74" width="16.85" height="52.31" transform="translate(893.34 1945.78) rotate(180)"/><rect class="cls-29" x="438.25" y="946.74" width="2.29" height="52.31"/></g><g><rect class="cls-29" x="449.07" y="952.38" width="4.49" height=".76" transform="translate(902.63 1905.51) rotate(180)"/><rect class="cls-29" x="442.39" y="952.38" width="4.49" height=".76" transform="translate(889.28 1905.51) rotate(180)"/></g><g><rect class="cls-29" x="449.07" y="955.51" width="4.49" height=".76" transform="translate(902.63 1911.77) rotate(180)"/><rect class="cls-29" x="442.39" y="955.51" width="4.49" height=".76" transform="translate(889.28 1911.77) rotate(180)"/></g><g><rect class="cls-29" x="449.07" y="958.64" width="4.49" height=".76" transform="translate(902.63 1918.04) rotate(180)"/><rect class="cls-29" x="442.39" y="958.64" width="4.49" height=".76" transform="translate(889.28 1918.04) rotate(180)"/></g><g><rect class="cls-29" x="449.07" y="961.77" width="4.49" height=".76" transform="translate(902.63 1924.3) rotate(180)"/><rect class="cls-29" x="442.39" y="961.77" width="4.49" height=".76" transform="translate(889.28 1924.3) rotate(180)"/></g><g><rect class="cls-29" x="449.07" y="964.9" width="4.49" height=".76" transform="translate(902.63 1930.56) rotate(180)"/><rect class="cls-29" x="442.39" y="964.9" width="4.49" height=".76" transform="translate(889.28 1930.56) rotate(180)"/></g><g><rect class="cls-29" x="449.07" y="968.04" width="4.49" height=".76" transform="translate(902.63 1936.83) rotate(180)"/><rect class="cls-29" x="442.39" y="968.04" width="4.49" height=".76" transform="translate(889.28 1936.83) rotate(180)"/></g><g><rect class="cls-29" x="449.07" y="971.17" width="4.49" height=".76" transform="translate(902.63 1943.09) rotate(180)"/><rect class="cls-29" x="442.39" y="971.17" width="4.49" height=".76" transform="translate(889.28 1943.09) rotate(180)"/></g><g><rect class="cls-29" x="449.07" y="974.3" width="4.49" height=".76" transform="translate(902.63 1949.36) rotate(180)"/><rect class="cls-29" x="442.39" y="974.3" width="4.49" height=".76" transform="translate(889.28 1949.36) rotate(180)"/></g><g><rect class="cls-29" x="449.07" y="977.43" width="4.49" height=".76" transform="translate(902.63 1955.62) rotate(180)"/><rect class="cls-29" x="442.39" y="977.43" width="4.49" height=".76" transform="translate(889.28 1955.62) rotate(180)"/></g><g><rect class="cls-29" x="449.07" y="980.56" width="4.49" height=".76" transform="translate(902.63 1961.88) rotate(180)"/><rect class="cls-29" x="442.39" y="980.56" width="4.49" height=".76" transform="translate(889.28 1961.88) rotate(180)"/></g><g><rect class="cls-29" x="449.07" y="983.7" width="4.49" height=".76" transform="translate(902.63 1968.15) rotate(180)"/><rect class="cls-29" x="442.39" y="983.7" width="4.49" height=".76" transform="translate(889.28 1968.15) rotate(180)"/></g><g><rect class="cls-29" x="449.07" y="986.83" width="4.49" height=".76" transform="translate(902.63 1974.41) rotate(180)"/><rect class="cls-29" x="442.39" y="986.83" width="4.49" height=".76" transform="translate(889.28 1974.41) rotate(180)"/></g><g><rect class="cls-29" x="449.07" y="989.96" width="4.49" height=".76" transform="translate(902.63 1980.68) rotate(180)"/><rect class="cls-29" x="442.39" y="989.96" width="4.49" height=".76" transform="translate(889.28 1980.68) rotate(180)"/></g></g><g><g><rect class="cls-29" x="391.68" y="946.74" width="16.85" height="52.31" transform="translate(800.21 1945.78) rotate(180)"/><rect class="cls-29" x="391.68" y="946.74" width="2.29" height="52.31"/></g><g><rect class="cls-29" x="402.5" y="952.38" width="4.49" height=".76" transform="translate(809.49 1905.51) rotate(180)"/><rect class="cls-29" x="395.82" y="952.38" width="4.49" height=".76" transform="translate(796.14 1905.51) rotate(180)"/></g><g><rect class="cls-29" x="402.5" y="955.51" width="4.49" height=".76" transform="translate(809.49 1911.77) rotate(180)"/><rect class="cls-29" x="395.82" y="955.51" width="4.49" height=".76" transform="translate(796.14 1911.77) rotate(180)"/></g><g><rect class="cls-29" x="402.5" y="958.64" width="4.49" height=".76" transform="translate(809.49 1918.04) rotate(180)"/><rect class="cls-29" x="395.82" y="958.64" width="4.49" height=".76" transform="translate(796.14 1918.04) rotate(180)"/></g><g><rect class="cls-29" x="402.5" y="961.77" width="4.49" height=".76" transform="translate(809.49 1924.3) rotate(180)"/><rect class="cls-29" x="395.82" y="961.77" width="4.49" height=".76" transform="translate(796.14 1924.3) rotate(180)"/></g><g><rect class="cls-29" x="402.5" y="964.9" width="4.49" height=".76" transform="translate(809.49 1930.56) rotate(180)"/><rect class="cls-29" x="395.82" y="964.9" width="4.49" height=".76" transform="translate(796.14 1930.56) rotate(180)"/></g><g><rect class="cls-29" x="402.5" y="968.04" width="4.49" height=".76" transform="translate(809.49 1936.83) rotate(180)"/><rect class="cls-29" x="395.82" y="968.04" width="4.49" height=".76" transform="translate(796.14 1936.83) rotate(180)"/></g><g><rect class="cls-29" x="402.5" y="971.17" width="4.49" height=".76" transform="translate(809.49 1943.09) rotate(180)"/><rect class="cls-29" x="395.82" y="971.17" width="4.49" height=".76" transform="translate(796.14 1943.09) rotate(180)"/></g><g><rect class="cls-29" x="402.5" y="974.3" width="4.49" height=".76" transform="translate(809.49 1949.36) rotate(180)"/><rect class="cls-29" x="395.82" y="974.3" width="4.49" height=".76" transform="translate(796.14 1949.36) rotate(180)"/></g><g><rect class="cls-29" x="402.5" y="977.43" width="4.49" height=".76" transform="translate(809.49 1955.62) rotate(180)"/><rect class="cls-29" x="395.82" y="977.43" width="4.49" height=".76" transform="translate(796.14 1955.62) rotate(180)"/></g><g><rect class="cls-29" x="402.5" y="980.56" width="4.49" height=".76" transform="translate(809.49 1961.88) rotate(180)"/><rect class="cls-29" x="395.82" y="980.56" width="4.49" height=".76" transform="translate(796.14 1961.88) rotate(180)"/></g><g><rect class="cls-29" x="402.5" y="983.7" width="4.49" height=".76" transform="translate(809.49 1968.15) rotate(180)"/><rect class="cls-29" x="395.82" y="983.7" width="4.49" height=".76" transform="translate(796.14 1968.15) rotate(180)"/></g><g><rect class="cls-29" x="402.5" y="986.83" width="4.49" height=".76" transform="translate(809.49 1974.41) rotate(180)"/><rect class="cls-29" x="395.82" y="986.83" width="4.49" height=".76" transform="translate(796.14 1974.41) rotate(180)"/></g><g><rect class="cls-29" x="402.5" y="989.96" width="4.49" height=".76" transform="translate(809.49 1980.68) rotate(180)"/><rect class="cls-29" x="395.82" y="989.96" width="4.49" height=".76" transform="translate(796.14 1980.68) rotate(180)"/></g></g><g><g><rect class="cls-29" x="345.11" y="946.74" width="16.85" height="52.31" transform="translate(707.07 1945.78) rotate(180)"/><rect class="cls-29" x="345.11" y="946.74" width="2.29" height="52.31"/></g><g><rect class="cls-29" x="355.93" y="952.38" width="4.49" height=".76" transform="translate(716.35 1905.51) rotate(180)"/><rect class="cls-29" x="349.26" y="952.38" width="4.49" height=".76" transform="translate(703.01 1905.51) rotate(180)"/></g><g><rect class="cls-29" x="355.93" y="955.51" width="4.49" height=".76" transform="translate(716.35 1911.77) rotate(180)"/><rect class="cls-29" x="349.26" y="955.51" width="4.49" height=".76" transform="translate(703.01 1911.77) rotate(180)"/></g><g><rect class="cls-29" x="355.93" y="958.64" width="4.49" height=".76" transform="translate(716.35 1918.04) rotate(180)"/><rect class="cls-29" x="349.26" y="958.64" width="4.49" height=".76" transform="translate(703.01 1918.04) rotate(180)"/></g><g><rect class="cls-29" x="355.93" y="961.77" width="4.49" height=".76" transform="translate(716.35 1924.3) rotate(180)"/><rect class="cls-29" x="349.26" y="961.77" width="4.49" height=".76" transform="translate(703.01 1924.3) rotate(180)"/></g><g><rect class="cls-29" x="355.93" y="964.9" width="4.49" height=".76" transform="translate(716.35 1930.56) rotate(180)"/><rect class="cls-29" x="349.26" y="964.9" width="4.49" height=".76" transform="translate(703.01 1930.56) rotate(180)"/></g><g><rect class="cls-29" x="355.93" y="968.04" width="4.49" height=".76" transform="translate(716.35 1936.83) rotate(180)"/><rect class="cls-29" x="349.26" y="968.04" width="4.49" height=".76" transform="translate(703.01 1936.83) rotate(180)"/></g><g><rect class="cls-29" x="355.93" y="971.17" width="4.49" height=".76" transform="translate(716.35 1943.09) rotate(180)"/><rect class="cls-29" x="349.26" y="971.17" width="4.49" height=".76" transform="translate(703.01 1943.09) rotate(180)"/></g><g><rect class="cls-29" x="355.93" y="974.3" width="4.49" height=".76" transform="translate(716.35 1949.36) rotate(180)"/><rect class="cls-29" x="349.26" y="974.3" width="4.49" height=".76" transform="translate(703.01 1949.36) rotate(180)"/></g><g><rect class="cls-29" x="355.93" y="977.43" width="4.49" height=".76" transform="translate(716.35 1955.62) rotate(180)"/><rect class="cls-29" x="349.26" y="977.43" width="4.49" height=".76" transform="translate(703.01 1955.62) rotate(180)"/></g><g><rect class="cls-29" x="355.93" y="980.56" width="4.49" height=".76" transform="translate(716.35 1961.88) rotate(180)"/><rect class="cls-29" x="349.26" y="980.56" width="4.49" height=".76" transform="translate(703.01 1961.88) rotate(180)"/></g><g><rect class="cls-29" x="355.93" y="983.7" width="4.49" height=".76" transform="translate(716.35 1968.15) rotate(180)"/><rect class="cls-29" x="349.26" y="983.7" width="4.49" height=".76" transform="translate(703.01 1968.15) rotate(180)"/></g><g><rect class="cls-29" x="355.93" y="986.83" width="4.49" height=".76" transform="translate(716.35 1974.41) rotate(180)"/><rect class="cls-29" x="349.26" y="986.83" width="4.49" height=".76" transform="translate(703.01 1974.41) rotate(180)"/></g><g><rect class="cls-29" x="355.93" y="989.96" width="4.49" height=".76" transform="translate(716.35 1980.68) rotate(180)"/><rect class="cls-29" x="349.26" y="989.96" width="4.49" height=".76" transform="translate(703.01 1980.68) rotate(180)"/></g></g></g><g><g><rect class="cls-31" x="269.21" y="946.74" width="16.85" height="52.31" transform="translate(555.26 1945.78) rotate(180)"/><rect class="cls-31" x="281.87" y="946.74" width="4.18" height="52.31"/></g><g><rect class="cls-31" x="84.31" y="946.74" width="16.85" height="52.31" transform="translate(185.46 1945.78) rotate(180)"/><rect class="cls-31" x="96.97" y="946.74" width="4.18" height="52.31"/></g><g><g><g><rect class="cls-31" x="222.64" y="946.74" width="16.85" height="52.31" transform="translate(462.13 1945.78) rotate(180)"/><rect class="cls-31" x="222.64" y="946.74" width="2.29" height="52.31"/></g><g><rect class="cls-31" x="233.46" y="952.38" width="4.49" height=".76" transform="translate(471.41 1905.51) rotate(180)"/><rect class="cls-31" x="226.78" y="952.38" width="4.49" height=".76" transform="translate(458.06 1905.51) rotate(180)"/></g><g><rect class="cls-31" x="233.46" y="955.51" width="4.49" height=".76" transform="translate(471.41 1911.77) rotate(180)"/><rect class="cls-31" x="226.78" y="955.51" width="4.49" height=".76" transform="translate(458.06 1911.77) rotate(180)"/></g><g><rect class="cls-31" x="233.46" y="958.64" width="4.49" height=".76" transform="translate(471.41 1918.04) rotate(180)"/><rect class="cls-31" x="226.78" y="958.64" width="4.49" height=".76" transform="translate(458.06 1918.04) rotate(180)"/></g><g><rect class="cls-31" x="233.46" y="961.77" width="4.49" height=".76" transform="translate(471.41 1924.3) rotate(180)"/><rect class="cls-31" x="226.78" y="961.77" width="4.49" height=".76" transform="translate(458.06 1924.3) rotate(180)"/></g><g><rect class="cls-31" x="233.46" y="964.9" width="4.49" height=".76" transform="translate(471.41 1930.56) rotate(180)"/><rect class="cls-31" x="226.78" y="964.9" width="4.49" height=".76" transform="translate(458.06 1930.56) rotate(180)"/></g><g><rect class="cls-31" x="233.46" y="968.04" width="4.49" height=".76" transform="translate(471.41 1936.83) rotate(180)"/><rect class="cls-31" x="226.78" y="968.04" width="4.49" height=".76" transform="translate(458.06 1936.83) rotate(180)"/></g><g><rect class="cls-31" x="233.46" y="971.17" width="4.49" height=".76" transform="translate(471.41 1943.09) rotate(180)"/><rect class="cls-31" x="226.78" y="971.17" width="4.49" height=".76" transform="translate(458.06 1943.09) rotate(180)"/></g><g><rect class="cls-31" x="233.46" y="974.3" width="4.49" height=".76" transform="translate(471.41 1949.36) rotate(180)"/><rect class="cls-31" x="226.78" y="974.3" width="4.49" height=".76" transform="translate(458.06 1949.36) rotate(180)"/></g><g><rect class="cls-31" x="233.46" y="977.43" width="4.49" height=".76" transform="translate(471.41 1955.62) rotate(180)"/><rect class="cls-31" x="226.78" y="977.43" width="4.49" height=".76" transform="translate(458.06 1955.62) rotate(180)"/></g><g><rect class="cls-31" x="233.46" y="980.56" width="4.49" height=".76" transform="translate(471.41 1961.88) rotate(180)"/><rect class="cls-31" x="226.78" y="980.56" width="4.49" height=".76" transform="translate(458.06 1961.88) rotate(180)"/></g><g><rect class="cls-31" x="233.46" y="983.7" width="4.49" height=".76" transform="translate(471.41 1968.15) rotate(180)"/><rect class="cls-31" x="226.78" y="983.7" width="4.49" height=".76" transform="translate(458.06 1968.15) rotate(180)"/></g><g><rect class="cls-31" x="233.46" y="986.83" width="4.49" height=".76" transform="translate(471.41 1974.41) rotate(180)"/><rect class="cls-31" x="226.78" y="986.83" width="4.49" height=".76" transform="translate(458.06 1974.41) rotate(180)"/></g><g><rect class="cls-31" x="233.46" y="989.96" width="4.49" height=".76" transform="translate(471.41 1980.68) rotate(180)"/><rect class="cls-31" x="226.78" y="989.96" width="4.49" height=".76" transform="translate(458.06 1980.68) rotate(180)"/></g></g><g><g><rect class="cls-31" x="176.07" y="946.74" width="16.85" height="52.31" transform="translate(368.99 1945.78) rotate(180)"/><rect class="cls-31" x="176.07" y="946.74" width="2.29" height="52.31"/></g><g><rect class="cls-31" x="186.89" y="952.38" width="4.49" height=".76" transform="translate(378.27 1905.51) rotate(180)"/><rect class="cls-31" x="180.22" y="952.38" width="4.49" height=".76" transform="translate(364.92 1905.51) rotate(180)"/></g><g><rect class="cls-31" x="186.89" y="955.51" width="4.49" height=".76" transform="translate(378.27 1911.77) rotate(180)"/><rect class="cls-31" x="180.22" y="955.51" width="4.49" height=".76" transform="translate(364.92 1911.77) rotate(180)"/></g><g><rect class="cls-31" x="186.89" y="958.64" width="4.49" height=".76" transform="translate(378.27 1918.04) rotate(180)"/><rect class="cls-31" x="180.22" y="958.64" width="4.49" height=".76" transform="translate(364.92 1918.04) rotate(180)"/></g><g><rect class="cls-31" x="186.89" y="961.77" width="4.49" height=".76" transform="translate(378.27 1924.3) rotate(180)"/><rect class="cls-31" x="180.22" y="961.77" width="4.49" height=".76" transform="translate(364.92 1924.3) rotate(180)"/></g><g><rect class="cls-31" x="186.89" y="964.9" width="4.49" height=".76" transform="translate(378.27 1930.56) rotate(180)"/><rect class="cls-31" x="180.22" y="964.9" width="4.49" height=".76" transform="translate(364.92 1930.56) rotate(180)"/></g><g><rect class="cls-31" x="186.89" y="968.04" width="4.49" height=".76" transform="translate(378.27 1936.83) rotate(180)"/><rect class="cls-31" x="180.22" y="968.04" width="4.49" height=".76" transform="translate(364.92 1936.83) rotate(180)"/></g><g><rect class="cls-31" x="186.89" y="971.17" width="4.49" height=".76" transform="translate(378.27 1943.09) rotate(180)"/><rect class="cls-31" x="180.22" y="971.17" width="4.49" height=".76" transform="translate(364.92 1943.09) rotate(180)"/></g><g><rect class="cls-31" x="186.89" y="974.3" width="4.49" height=".76" transform="translate(378.27 1949.36) rotate(180)"/><rect class="cls-31" x="180.22" y="974.3" width="4.49" height=".76" transform="translate(364.92 1949.36) rotate(180)"/></g><g><rect class="cls-31" x="186.89" y="977.43" width="4.49" height=".76" transform="translate(378.27 1955.62) rotate(180)"/><rect class="cls-31" x="180.22" y="977.43" width="4.49" height=".76" transform="translate(364.92 1955.62) rotate(180)"/></g><g><rect class="cls-31" x="186.89" y="980.56" width="4.49" height=".76" transform="translate(378.27 1961.88) rotate(180)"/><rect class="cls-31" x="180.22" y="980.56" width="4.49" height=".76" transform="translate(364.92 1961.88) rotate(180)"/></g><g><rect class="cls-31" x="186.89" y="983.7" width="4.49" height=".76" transform="translate(378.27 1968.15) rotate(180)"/><rect class="cls-31" x="180.22" y="983.7" width="4.49" height=".76" transform="translate(364.92 1968.15) rotate(180)"/></g><g><rect class="cls-31" x="186.89" y="986.83" width="4.49" height=".76" transform="translate(378.27 1974.41) rotate(180)"/><rect class="cls-31" x="180.22" y="986.83" width="4.49" height=".76" transform="translate(364.92 1974.41) rotate(180)"/></g><g><rect class="cls-31" x="186.89" y="989.96" width="4.49" height=".76" transform="translate(378.27 1980.68) rotate(180)"/><rect class="cls-31" x="180.22" y="989.96" width="4.49" height=".76" transform="translate(364.92 1980.68) rotate(180)"/></g></g><g><g><rect class="cls-31" x="129.5" y="946.74" width="16.85" height="52.31" transform="translate(275.85 1945.78) rotate(180)"/><rect class="cls-31" x="129.5" y="946.74" width="2.29" height="52.31"/></g><g><rect class="cls-31" x="140.32" y="952.38" width="4.49" height=".76" transform="translate(285.14 1905.51) rotate(180)"/><rect class="cls-31" x="133.65" y="952.38" width="4.49" height=".76" transform="translate(271.79 1905.51) rotate(180)"/></g><g><rect class="cls-31" x="140.32" y="958.64" width="4.49" height=".76" transform="translate(285.14 1918.04) rotate(180)"/><rect class="cls-31" x="133.65" y="958.64" width="4.49" height=".76" transform="translate(271.79 1918.04) rotate(180)"/></g><g><rect class="cls-31" x="140.32" y="961.77" width="4.49" height=".76" transform="translate(285.14 1924.3) rotate(180)"/><rect class="cls-31" x="133.65" y="961.77" width="4.49" height=".76" transform="translate(271.79 1924.3) rotate(180)"/></g><g><rect class="cls-31" x="140.32" y="964.9" width="4.49" height=".76" transform="translate(285.14 1930.56) rotate(180)"/><rect class="cls-31" x="133.65" y="964.9" width="4.49" height=".76" transform="translate(271.79 1930.56) rotate(180)"/></g><g><rect class="cls-31" x="140.32" y="968.04" width="4.49" height=".76" transform="translate(285.14 1936.83) rotate(180)"/><rect class="cls-31" x="133.65" y="968.04" width="4.49" height=".76" transform="translate(271.79 1936.83) rotate(180)"/></g><g><rect class="cls-31" x="140.32" y="971.17" width="4.49" height=".76" transform="translate(285.14 1943.09) rotate(180)"/><rect class="cls-31" x="133.65" y="971.17" width="4.49" height=".76" transform="translate(271.79 1943.09) rotate(180)"/></g><g><rect class="cls-31" x="140.32" y="974.3" width="4.49" height=".76" transform="translate(285.14 1949.36) rotate(180)"/><rect class="cls-31" x="133.65" y="974.3" width="4.49" height=".76" transform="translate(271.79 1949.36) rotate(180)"/></g><g><rect class="cls-31" x="140.32" y="977.43" width="4.49" height=".76" transform="translate(285.14 1955.62) rotate(180)"/><rect class="cls-31" x="133.65" y="977.43" width="4.49" height=".76" transform="translate(271.79 1955.62) rotate(180)"/></g><g><rect class="cls-31" x="140.32" y="980.56" width="4.49" height=".76" transform="translate(285.14 1961.88) rotate(180)"/><rect class="cls-31" x="133.65" y="980.56" width="4.49" height=".76" transform="translate(271.79 1961.88) rotate(180)"/></g><g><rect class="cls-31" x="140.32" y="983.7" width="4.49" height=".76" transform="translate(285.14 1968.15) rotate(180)"/><rect class="cls-31" x="133.65" y="983.7" width="4.49" height=".76" transform="translate(271.79 1968.15) rotate(180)"/></g><g><rect class="cls-31" x="140.32" y="986.83" width="4.49" height=".76" transform="translate(285.14 1974.41) rotate(180)"/><rect class="cls-31" x="133.65" y="986.83" width="4.49" height=".76" transform="translate(271.79 1974.41) rotate(180)"/></g><g><rect class="cls-31" x="140.32" y="989.96" width="4.49" height=".76" transform="translate(285.14 1980.68) rotate(180)"/><rect class="cls-31" x="133.65" y="989.96" width="4.49" height=".76" transform="translate(271.79 1980.68) rotate(180)"/></g></g></g></g><g><g><rect class="cls-31" x="269.21" y="1029.04" width="16.85" height="52.31" transform="translate(555.26 2110.39) rotate(180)"/><rect class="cls-31" x="281.87" y="1029.04" width="4.18" height="52.31"/></g><g><rect class="cls-31" x="222.64" y="1029.04" width="16.85" height="52.31" transform="translate(462.13 2110.39) rotate(180)"/><rect class="cls-31" x="235.3" y="1029.04" width="4.18" height="52.31"/></g><g><rect class="cls-31" x="176.07" y="1029.04" width="16.85" height="52.31" transform="translate(368.99 2110.39) rotate(180)"/><rect class="cls-31" x="188.74" y="1029.04" width="4.18" height="52.31"/></g><g><rect class="cls-31" x="130.88" y="1029.04" width="16.85" height="52.31" transform="translate(278.6 2110.39) rotate(180)"/><rect class="cls-31" x="143.54" y="1029.04" width="4.18" height="52.31"/></g><g><rect class="cls-31" x="84.31" y="1029.04" width="16.85" height="52.31" transform="translate(185.46 2110.39) rotate(180)"/><rect class="cls-31" x="96.97" y="1029.04" width="4.18" height="52.31"/></g></g><g><g><rect class="cls-31" x="438.25" y="1029.04" width="16.85" height="52.31" transform="translate(893.34 2110.39) rotate(180)"/><rect class="cls-31" x="450.91" y="1029.04" width="4.18" height="52.31"/></g><g><rect class="cls-31" x="345.11" y="1029.04" width="16.85" height="52.31" transform="translate(707.07 2110.39) rotate(180)"/><rect class="cls-31" x="357.78" y="1029.04" width="4.18" height="52.31"/></g><g><g><rect class="cls-31" x="391.68" y="1029.04" width="16.85" height="52.31" transform="translate(800.21 2110.39) rotate(180)"/><rect class="cls-31" x="391.68" y="1029.04" width="2.29" height="52.31"/></g><g><rect class="cls-31" x="402.5" y="1034.68" width="4.49" height=".76" transform="translate(809.49 2070.11) rotate(180)"/><rect class="cls-31" x="395.82" y="1034.68" width="4.49" height=".76" transform="translate(796.14 2070.11) rotate(180)"/></g><g><rect class="cls-31" x="402.5" y="1037.81" width="4.49" height=".76" transform="translate(809.49 2076.38) rotate(180)"/><rect class="cls-31" x="395.82" y="1037.81" width="4.49" height=".76" transform="translate(796.14 2076.38) rotate(180)"/></g><g><rect class="cls-31" x="402.5" y="1040.94" width="4.49" height=".76" transform="translate(809.49 2082.64) rotate(180)"/><rect class="cls-31" x="395.82" y="1040.94" width="4.49" height=".76" transform="translate(796.14 2082.64) rotate(180)"/></g><g><rect class="cls-31" x="402.5" y="1044.07" width="4.49" height=".76" transform="translate(809.49 2088.9) rotate(180)"/><rect class="cls-31" x="395.82" y="1044.07" width="4.49" height=".76" transform="translate(796.14 2088.9) rotate(180)"/></g><g><rect class="cls-31" x="402.5" y="1047.21" width="4.49" height=".76" transform="translate(809.49 2095.17) rotate(180)"/><rect class="cls-31" x="395.82" y="1047.21" width="4.49" height=".76" transform="translate(796.14 2095.17) rotate(180)"/></g><g><rect class="cls-31" x="402.5" y="1050.34" width="4.49" height=".76" transform="translate(809.49 2101.43) rotate(180)"/><rect class="cls-31" x="395.82" y="1050.34" width="4.49" height=".76" transform="translate(796.14 2101.43) rotate(180)"/></g><g><rect class="cls-31" x="402.5" y="1053.47" width="4.49" height=".76" transform="translate(809.49 2107.7) rotate(180)"/><rect class="cls-31" x="395.82" y="1053.47" width="4.49" height=".76" transform="translate(796.14 2107.7) rotate(180)"/></g><g><rect class="cls-31" x="402.5" y="1056.6" width="4.49" height=".76" transform="translate(809.49 2113.96) rotate(180)"/><rect class="cls-31" x="395.82" y="1056.6" width="4.49" height=".76" transform="translate(796.14 2113.96) rotate(180)"/></g><g><rect class="cls-31" x="402.5" y="1059.73" width="4.49" height=".76" transform="translate(809.49 2120.22) rotate(180)"/><rect class="cls-31" x="395.82" y="1059.73" width="4.49" height=".76" transform="translate(796.14 2120.22) rotate(180)"/></g><g><rect class="cls-31" x="402.5" y="1062.87" width="4.49" height=".76" transform="translate(809.49 2126.49) rotate(180)"/><rect class="cls-31" x="395.82" y="1062.87" width="4.49" height=".76" transform="translate(796.14 2126.49) rotate(180)"/></g><g><rect class="cls-31" x="402.5" y="1066" width="4.49" height=".76" transform="translate(809.49 2132.75) rotate(180)"/><rect class="cls-31" x="395.82" y="1066" width="4.49" height=".76" transform="translate(796.14 2132.75) rotate(180)"/></g><g><rect class="cls-31" x="402.5" y="1069.13" width="4.49" height=".76" transform="translate(809.49 2139.02) rotate(180)"/><rect class="cls-31" x="395.82" y="1069.13" width="4.49" height=".76" transform="translate(796.14 2139.02) rotate(180)"/></g><g><rect class="cls-31" x="402.5" y="1072.26" width="4.49" height=".76" transform="translate(809.49 2145.28) rotate(180)"/><rect class="cls-31" x="395.82" y="1072.26" width="4.49" height=".76" transform="translate(796.14 2145.28) rotate(180)"/></g></g></g><g><rect class="cls-31" x="182.32" y="787.01" width="12.35" height="65.3" transform="translate(377 1639.31) rotate(180)"/><rect class="cls-31" x="194.07" y="787.01" width="11.44" height="65.3" transform="translate(399.57 1639.31) rotate(180)"/></g><g><rect class="cls-31" x="276.46" y="804.4" width="9.06" height="47.9" transform="translate(561.97 1656.7) rotate(180)"/><rect class="cls-31" x="285.07" y="804.4" width="8.39" height="47.9" transform="translate(578.53 1656.7) rotate(180)"/></g><g><g><g><rect class="cls-31" x="269.21" y="1029.04" width="16.85" height="52.31" transform="translate(555.26 2110.39) rotate(180)"/><rect class="cls-31" x="269.21" y="1029.04" width="2.29" height="52.31"/></g><g><rect class="cls-31" x="280.03" y="1034.68" width="4.49" height=".76" transform="translate(564.55 2070.11) rotate(180)"/><rect class="cls-31" x="273.35" y="1034.68" width="4.49" height=".76" transform="translate(551.2 2070.11) rotate(180)"/></g><g><rect class="cls-31" x="280.03" y="1037.81" width="4.49" height=".76" transform="translate(564.55 2076.38) rotate(180)"/><rect class="cls-31" x="273.35" y="1037.81" width="4.49" height=".76" transform="translate(551.2 2076.38) rotate(180)"/></g><g><rect class="cls-31" x="280.03" y="1040.94" width="4.49" height=".76" transform="translate(564.55 2082.64) rotate(180)"/><rect class="cls-31" x="273.35" y="1040.94" width="4.49" height=".76" transform="translate(551.2 2082.64) rotate(180)"/></g><g><rect class="cls-31" x="280.03" y="1044.07" width="4.49" height=".76" transform="translate(564.55 2088.9) rotate(180)"/><rect class="cls-31" x="273.35" y="1044.07" width="4.49" height=".76" transform="translate(551.2 2088.9) rotate(180)"/></g><g><rect class="cls-31" x="280.03" y="1047.21" width="4.49" height=".76" transform="translate(564.55 2095.17) rotate(180)"/><rect class="cls-31" x="273.35" y="1047.21" width="4.49" height=".76" transform="translate(551.2 2095.17) rotate(180)"/></g><g><rect class="cls-31" x="280.03" y="1050.34" width="4.49" height=".76" transform="translate(564.55 2101.43) rotate(180)"/><rect class="cls-31" x="273.35" y="1050.34" width="4.49" height=".76" transform="translate(551.2 2101.43) rotate(180)"/></g><g><rect class="cls-31" x="280.03" y="1053.47" width="4.49" height=".76" transform="translate(564.55 2107.7) rotate(180)"/><rect class="cls-31" x="273.35" y="1053.47" width="4.49" height=".76" transform="translate(551.2 2107.7) rotate(180)"/></g><g><rect class="cls-31" x="280.03" y="1056.6" width="4.49" height=".76" transform="translate(564.55 2113.96) rotate(180)"/><rect class="cls-31" x="273.35" y="1056.6" width="4.49" height=".76" transform="translate(551.2 2113.96) rotate(180)"/></g><g><rect class="cls-31" x="280.03" y="1059.73" width="4.49" height=".76" transform="translate(564.55 2120.22) rotate(180)"/><rect class="cls-31" x="273.35" y="1059.73" width="4.49" height=".76" transform="translate(551.2 2120.22) rotate(180)"/></g><g><rect class="cls-31" x="280.03" y="1062.87" width="4.49" height=".76" transform="translate(564.55 2126.49) rotate(180)"/><rect class="cls-31" x="273.35" y="1062.87" width="4.49" height=".76" transform="translate(551.2 2126.49) rotate(180)"/></g><g><rect class="cls-31" x="280.03" y="1066" width="4.49" height=".76" transform="translate(564.55 2132.75) rotate(180)"/><rect class="cls-31" x="273.35" y="1066" width="4.49" height=".76" transform="translate(551.2 2132.75) rotate(180)"/></g><g><rect class="cls-31" x="280.03" y="1069.13" width="4.49" height=".76" transform="translate(564.55 2139.02) rotate(180)"/><rect class="cls-31" x="273.35" y="1069.13" width="4.49" height=".76" transform="translate(551.2 2139.02) rotate(180)"/></g><g><rect class="cls-31" x="280.03" y="1072.26" width="4.49" height=".76" transform="translate(564.55 2145.28) rotate(180)"/><rect class="cls-31" x="273.35" y="1072.26" width="4.49" height=".76" transform="translate(551.2 2145.28) rotate(180)"/></g></g><g><g><rect class="cls-31" x="176.07" y="1029.04" width="16.85" height="52.31" transform="translate(368.99 2110.39) rotate(180)"/><rect class="cls-31" x="176.07" y="1029.04" width="2.29" height="52.31"/></g><g><rect class="cls-31" x="186.89" y="1034.68" width="4.49" height=".76" transform="translate(378.27 2070.11) rotate(180)"/><rect class="cls-31" x="180.22" y="1034.68" width="4.49" height=".76" transform="translate(364.92 2070.11) rotate(180)"/></g><g><rect class="cls-31" x="186.89" y="1037.81" width="4.49" height=".76" transform="translate(378.27 2076.38) rotate(180)"/><rect class="cls-31" x="180.22" y="1037.81" width="4.49" height=".76" transform="translate(364.92 2076.38) rotate(180)"/></g><g><rect class="cls-31" x="186.89" y="1040.94" width="4.49" height=".76" transform="translate(378.27 2082.64) rotate(180)"/><rect class="cls-31" x="180.22" y="1040.94" width="4.49" height=".76" transform="translate(364.92 2082.64) rotate(180)"/></g><g><rect class="cls-31" x="186.89" y="1044.07" width="4.49" height=".76" transform="translate(378.27 2088.9) rotate(180)"/><rect class="cls-31" x="180.22" y="1044.07" width="4.49" height=".76" transform="translate(364.92 2088.9) rotate(180)"/></g><g><rect class="cls-31" x="186.89" y="1047.21" width="4.49" height=".76" transform="translate(378.27 2095.17) rotate(180)"/><rect class="cls-31" x="180.22" y="1047.21" width="4.49" height=".76" transform="translate(364.92 2095.17) rotate(180)"/></g><g><rect class="cls-31" x="186.89" y="1050.34" width="4.49" height=".76" transform="translate(378.27 2101.43) rotate(180)"/><rect class="cls-31" x="180.22" y="1050.34" width="4.49" height=".76" transform="translate(364.92 2101.43) rotate(180)"/></g><g><rect class="cls-31" x="186.89" y="1053.47" width="4.49" height=".76" transform="translate(378.27 2107.7) rotate(180)"/><rect class="cls-31" x="180.22" y="1053.47" width="4.49" height=".76" transform="translate(364.92 2107.7) rotate(180)"/></g><g><rect class="cls-31" x="186.89" y="1056.6" width="4.49" height=".76" transform="translate(378.27 2113.96) rotate(180)"/><rect class="cls-31" x="180.22" y="1056.6" width="4.49" height=".76" transform="translate(364.92 2113.96) rotate(180)"/></g><g><rect class="cls-31" x="186.89" y="1059.73" width="4.49" height=".76" transform="translate(378.27 2120.22) rotate(180)"/><rect class="cls-31" x="180.22" y="1059.73" width="4.49" height=".76" transform="translate(364.92 2120.22) rotate(180)"/></g><g><rect class="cls-31" x="186.89" y="1062.87" width="4.49" height=".76" transform="translate(378.27 2126.49) rotate(180)"/><rect class="cls-31" x="180.22" y="1062.87" width="4.49" height=".76" transform="translate(364.92 2126.49) rotate(180)"/></g><g><rect class="cls-31" x="186.89" y="1066" width="4.49" height=".76" transform="translate(378.27 2132.75) rotate(180)"/><rect class="cls-31" x="180.22" y="1066" width="4.49" height=".76" transform="translate(364.92 2132.75) rotate(180)"/></g><g><rect class="cls-31" x="186.89" y="1069.13" width="4.49" height=".76" transform="translate(378.27 2139.02) rotate(180)"/><rect class="cls-31" x="180.22" y="1069.13" width="4.49" height=".76" transform="translate(364.92 2139.02) rotate(180)"/></g><g><rect class="cls-31" x="186.89" y="1072.26" width="4.49" height=".76" transform="translate(378.27 2145.28) rotate(180)"/><rect class="cls-31" x="180.22" y="1072.26" width="4.49" height=".76" transform="translate(364.92 2145.28) rotate(180)"/></g></g></g></g><g><g><rect class="cls-29" x="1312.05" y="406.67" width="14.37" height="128.53" transform="translate(2638.46 941.87) rotate(180)"/><rect class="cls-24" x="1325.7" y="406.67" width="13.31" height="128.53" transform="translate(2664.72 941.87) rotate(180)"/></g><polygon class="cls-24" points="1401 587.08 1271.86 425.72 1142.72 587.08 1142.72 942 1401 942 1401 587.08"/><g><g><rect class="cls-29" x="1313.51" y="595.78" width="38.76" height="43.4" transform="translate(2665.79 1234.95) rotate(180)"/><rect class="cls-29" x="1344.16" y="595.78" width="8.11" height="43.4"/></g><g><rect class="cls-29" x="1252.48" y="595.78" width="38.76" height="43.4" transform="translate(2543.72 1234.95) rotate(180)"/><rect class="cls-29" x="1283.13" y="595.78" width="8.11" height="43.4"/></g><g><rect class="cls-29" x="1252.48" y="513.5" width="38.76" height="43.4" transform="translate(2543.72 1070.4) rotate(180)"/><rect class="cls-29" x="1283.13" y="513.5" width="8.11" height="43.4"/></g><g><rect class="cls-29" x="1191.45" y="595.78" width="38.76" height="43.4" transform="translate(2421.65 1234.95) rotate(180)"/><rect class="cls-29" x="1222.09" y="595.78" width="8.11" height="43.4"/></g></g><g><g><rect class="cls-29" x="1313.51" y="681.63" width="38.76" height="43.4" transform="translate(2665.79 1406.67) rotate(180)"/><rect class="cls-29" x="1344.16" y="681.63" width="8.11" height="43.4"/></g><g><rect class="cls-29" x="1252.48" y="681.63" width="38.76" height="43.4" transform="translate(2543.72 1406.67) rotate(180)"/><rect class="cls-29" x="1283.13" y="681.63" width="8.11" height="43.4"/></g><g><rect class="cls-29" x="1191.45" y="681.63" width="38.76" height="43.4" transform="translate(2421.65 1406.67) rotate(180)"/><rect class="cls-29" x="1222.09" y="681.63" width="8.11" height="43.4"/></g></g><g><g><rect class="cls-29" x="1313.51" y="767.49" width="38.76" height="43.4" transform="translate(2665.79 1578.38) rotate(180)"/><rect class="cls-29" x="1344.16" y="767.49" width="8.11" height="43.4"/></g><g><rect class="cls-29" x="1252.48" y="767.49" width="38.76" height="43.4" transform="translate(2543.72 1578.38) rotate(180)"/><rect class="cls-29" x="1283.13" y="767.49" width="8.11" height="43.4"/></g><g><rect class="cls-29" x="1191.45" y="767.49" width="38.76" height="43.4" transform="translate(2421.65 1578.38) rotate(180)"/><rect class="cls-29" x="1222.09" y="767.49" width="8.11" height="43.4"/></g></g><g><g><rect class="cls-29" x="1313.51" y="853.35" width="38.76" height="43.4" transform="translate(2665.79 1750.09) rotate(180)"/><rect class="cls-29" x="1344.16" y="853.35" width="8.11" height="43.4"/></g><g><rect class="cls-29" x="1252.48" y="853.35" width="38.76" height="43.4" transform="translate(2543.72 1750.09) rotate(180)"/><rect class="cls-29" x="1283.13" y="853.35" width="8.11" height="43.4"/></g><g><rect class="cls-29" x="1191.45" y="853.35" width="38.76" height="43.4" transform="translate(2421.65 1750.09) rotate(180)"/><rect class="cls-29" x="1222.09" y="853.35" width="8.11" height="43.4"/></g></g></g><g><g><rect class="cls-29" x="1458.39" y="599.46" width="13.7" height="72.44" transform="translate(2930.49 1271.35) rotate(180)"/><rect class="cls-29" x="1471.42" y="599.46" width="12.69" height="72.44" transform="translate(2955.53 1271.35) rotate(180)"/></g><polygon class="cls-15" points="1599.82 1004.67 1800.17 1004.67 1800.17 759.13 1699.99 637.11 1599.82 759.13 1599.82 1004.67"/><polygon class="cls-23" points="1427.82 637.11 1699.99 637.11 1599.82 759.13 1599.82 1004.67 1327.64 1004.67 1327.64 759.13 1427.82 637.11"/><g class="cls-36"><polygon class="cls-9" points="1427.82 637.11 1699.99 637.11 1599.82 759.13 1327.64 759.13 1427.82 637.11"/></g><g class="cls-36"><polygon class="cls-9" points="1799.82 840.57 1687.25 840.57 1728.68 891.04 1841.25 891.04 1799.82 840.57"/></g><g><g><rect class="cls-31" x="1550.84" y="783.16" width="26.57" height="45.02"/><rect class="cls-31" x="1550.84" y="820.89" width="26.57" height="7.29"/></g><g><rect class="cls-31" x="1499.86" y="783.16" width="26.57" height="45.02"/><rect class="cls-31" x="1499.86" y="820.89" width="26.57" height="7.29"/></g><g><rect class="cls-31" x="1448.89" y="783.16" width="26.57" height="45.02"/><rect class="cls-31" x="1448.89" y="820.89" width="26.57" height="7.29"/></g><g><rect class="cls-31" x="1397.92" y="783.16" width="26.57" height="45.02"/><rect class="cls-31" x="1397.92" y="820.89" width="26.57" height="7.29"/></g><g><rect class="cls-31" x="1346.94" y="783.16" width="26.57" height="45.02"/><rect class="cls-31" x="1346.95" y="820.89" width="26.57" height="7.29"/></g></g><g><g><rect class="cls-31" x="1550.84" y="867.96" width="26.57" height="45.02"/><rect class="cls-31" x="1550.84" y="905.69" width="26.57" height="7.29"/></g><g><rect class="cls-31" x="1499.86" y="867.96" width="26.57" height="45.02"/><rect class="cls-31" x="1499.86" y="905.69" width="26.57" height="7.29"/></g><g><rect class="cls-31" x="1448.89" y="867.96" width="26.57" height="45.02"/><rect class="cls-31" x="1448.89" y="905.69" width="26.57" height="7.29"/></g><g><rect class="cls-31" x="1397.92" y="867.96" width="26.57" height="45.02"/><rect class="cls-31" x="1397.92" y="905.69" width="26.57" height="7.29"/></g><g><rect class="cls-31" x="1346.94" y="867.96" width="26.57" height="45.02"/><rect class="cls-31" x="1346.95" y="905.69" width="26.57" height="7.29"/></g></g><g><rect class="cls-29" x="1562.82" y="618.75" width="10.05" height="53.14" transform="translate(3135.69 1290.65) rotate(180)"/><rect class="cls-29" x="1572.38" y="618.75" width="9.31" height="53.14" transform="translate(3154.06 1290.65) rotate(180)"/></g><g><g><rect class="cls-31" x="1737.68" y="783.16" width="26.57" height="45.02"/><rect class="cls-31" x="1737.68" y="820.89" width="26.57" height="7.29"/></g><g><rect class="cls-31" x="1686.7" y="783.16" width="26.57" height="45.02"/><rect class="cls-31" x="1686.7" y="820.89" width="26.57" height="7.29"/></g><g><rect class="cls-31" x="1635.73" y="783.16" width="26.57" height="45.02"/><rect class="cls-31" x="1635.73" y="820.89" width="26.57" height="7.29"/></g></g><polygon class="cls-29" points="1687.25 840.57 1687.25 1004.67 1727.9 1004.67 1727.9 891.04 1687.25 840.57"/></g><g><path class="cls-28" d="M1275.92,855.67c1.34-26.14,25.09-25.51,28.03-44.94,1.72-11.36-7.85-23.42-7.85-36.86,0-40.44,25.86-73.23,57.77-73.23h0c23.31,0,49.48,21.98,49.48,62.42,0,13.44-14.25,36.32-13,47.67,2.15,19.43,16.44,40.34,16.44,66.51,0,50.7-23.69,91.8-52.92,91.8h0c-40,0-82.13-31.9-77.95-113.37Z"/><rect class="cls-28" x="1341.21" y="905.51" width="9.85" height="127.05"/><rect class="cls-34" x="1240.33" y="860.44" width="213.87" height="3.34" transform="translate(470.95 2200.18) rotate(-89.39)"/><polygon class="cls-34" points="1346.76 847.03 1384.01 755.81 1380.92 754.55 1346.94 837.77 1333.04 799.67 1329.9 800.81 1346.76 847.03"/><polygon class="cls-34" points="1347 898.4 1395.26 856.89 1393.08 854.36 1347.53 893.53 1308.64 841.4 1305.96 843.4 1347 898.4"/><polygon class="cls-34" points="1346.45 947 1395.29 902.69 1393.05 900.21 1346.33 942.6 1286.97 894.67 1284.88 897.27 1346.45 947"/></g></g><g><path class="cls-27" d="M484.14,919.98c-21.21,7.74-64.2,114.54-53.27,165.62,10.93,51.08,53.27,54.95,53.27,54.95,0,0,42.34-3.87,53.27-54.95,10.93-51.08-32.07-157.88-53.27-165.62Z"/><polygon class="cls-26" points="526.6 1053.91 490.19 1096.33 487.83 1040.66 514.6 987.59 487.46 1031.78 484.14 953.23 480.81 1031.78 453.67 987.59 480.44 1040.66 478.08 1096.33 441.67 1053.91 477.66 1106.22 474.88 1172 484.14 1172 493.39 1172 490.61 1106.22 526.6 1053.91"/></g><g><path class="cls-27" d="M1849.03,1010.02c-21.21,7.74-64.2,114.54-53.27,165.62,10.93,51.08,53.27,54.95,53.27,54.95,0,0,42.34-3.87,53.27-54.95s-32.07-157.88-53.27-165.62Z"/><polygon class="cls-26" points="1891.49 1143.95 1855.08 1186.38 1852.73 1130.71 1879.49 1077.63 1852.35 1121.83 1849.03 1043.28 1845.71 1121.83 1818.57 1077.63 1845.33 1130.71 1842.98 1186.38 1806.56 1143.95 1842.56 1196.27 1839.78 1262.05 1849.03 1262.05 1858.28 1262.05 1855.5 1196.27 1891.49 1143.95"/></g><g><path class="cls-27" d="M1656.86,878.65c-21.21,7.74-64.2,114.54-53.27,165.62,10.93,51.08,53.27,54.95,53.27,54.95,0,0,42.34-3.87,53.27-54.95,10.93-51.08-32.07-157.88-53.27-165.62Z"/><polygon class="cls-26" points="1699.33 1012.58 1662.92 1055 1660.56 999.33 1687.33 946.26 1660.19 990.46 1656.86 911.91 1653.54 990.46 1626.4 946.26 1653.17 999.33 1650.81 1055 1614.4 1012.58 1650.39 1064.9 1647.61 1130.67 1656.86 1130.67 1666.12 1130.67 1663.33 1064.9 1699.33 1012.58"/></g></g></g><path class="cls-32" d="M947,1718c1,0,.75-407.27,2.07-410.69,.43-1.78,1.02-3.55,1.7-5.25,4.47-6.85,11.19-5.76,18.11-5.67,36.37,.5,63.77,20.25,90.2,41.83,27.69,22.61,57.14,38.68,94.81,37.47,31.21-1,57.78-11.41,81.86-30.09,8.63-6.69,17.09-13.59,25.76-20.23,57.55-44.13,131.59-39.87,186.51,7.36,20.63,17.74,42.4,33.91,69.83,39.64,29.84,6.23,58.9,4.06,86.83-9.05,6.87-3.23,23.81-36.22,32.32-32.32,7.25,9.32-13.3,40.96-18,48-17.35,25.96-245,337-672,340"/><path class="cls-30" d="M953,1717c0-1,2-416,.78-417.08-9.87-9.18-21.54-6.2-32.55-3.96-29.56,6-53.01,23.42-75.16,42.55-36.14,31.21-77.47,40.62-123.63,30.74-25.39-5.43-44.28-22.23-63.98-37.47-18.57-14.37-37.3-28.71-60.72-34.05-52.06-11.87-98.66-1.42-139.54,34.1-17.61,15.3-35.98,30.7-59.4,36.25-33.15,7.86-65.93,7.22-97.23-8.77-6.53-3.33-13.47-9.27-21.29-2.02,39.79,64.24,213.61,361.71,672.72,361.71"/><path class="cls-14" d="M607.68,1143.85c-.16-53.38-.33-106.76-.49-160.14-5.37-8.02-7.31-16.94-7.04-26.48,.61-21.64-1.71-43.37,2.04-64.87-.68-9.2,4.33-15.8,10.38-21.78,44.46-43.94,89.64-87.12,135.22-129.88,30.77-28.86,60.64-58.69,91.05-87.93,31.16-29.97,63.03-59.21,93.8-89.59,6.54-6.46,13.6-16.34,24.84-5.97,3.95,8.35,3.67,17.27,3.67,26.11,.06,107.84,.1,215.67-.07,323.51-.01,9.24,1.39,18.92-4.72,27.18-5.49,6.01-12.85,6.12-20.16,6.25-19.75,.37-39.5,.1-59.25,.18-27.37,.12-28.36,1-28.39,27.76-.07,60.29-.08,120.57,.03,180.86,.02,11.46-.44,22.84-2.44,34.11-.95,9.29-7.52,14.42-14.46,19.17-41.85,28.66-107.99,32.4-159.37-5.6-18.76-13.87-36.08-29.72-56.89-40.79-4.47-2.37-9.02-5.62-7.75-12.11Z"/><path class="cls-16" d="M607.68,1143.85c24.04,11.72,44.2,28.99,65.27,45.04,51.62,39.32,121.3,38.24,168.55-2.12,23.71-34.58,57.17-52.23,98.32-56.04,7.41-.69,14.45,1.45,18.52,8.85,2.77,4.77,2.58,10.07,2.62,15.24,.36,41.67,.28,83.33,.07,125-.04,7.39-.41,14.67-6.61,20.03-.23,.69-.45,1.38-.66,2.07-42.48-2.81-74.65,18.69-104.66,44.8-38.47,33.46-82.72,41.87-131.32,30.43-25.08-5.91-44.75-21.99-63.59-38.38-39.15-34.06-83.68-44.69-133.71-32.57-23.38,5.67-42.6,19.49-60.08,35.17-41.28,37.05-88.25,49.55-141.7,34.21-13.28-3.81-25.65-10.78-38.44-16.3-43.99-68.97-77.59-142.54-98.26-221.84,29.59,3.33,53.8,17.87,76.06,36.51,24.12,20.19,49.52,37.57,81.94,42,38.57,5.27,73.19-3.31,104.08-26.94,4.54-3.47,9.24-6.8,13.44-10.66,43.52-40,93.51-51.63,150.13-34.5Z"/><path class="cls-11" d="M1727.65,1134.51c-.26,.9-.63,1.75-1.1,2.56-3.63,3.71-7.08,7.63-12.47,8.96-25.44,6.29-46.9,20.35-65.72,37.51-57.54,52.47-143.73,54.09-204.71-2.91-35.57-33.25-77.75-44.09-125.43-34.73-7.51,1.47-15.76,3.02-21.11-5.41-2.57-4.83-2.35-10.12-2.37-15.28-.29-73.87-.34-147.73,0-221.6,.02-3.64,.18-7.28,.98-10.82,4.4-11.06,11.63-8.58,18.44-3.09,10.51,8.46,21.33,16.65,30.58,26.54,5.93,6.34,10.98,6.17,16.93-.1,20.75-21.84,43.46-41.79,63.05-64.75,4.14-4.85,8.42-9.14,14.56-11.22,47.35,47.7,94.63,95.47,142.06,143.09,44.87,45.05,89.91,89.94,134.85,134.92,4.76,4.76,10.26,9.04,11.45,16.31Z"/><path class="cls-21" d="M1439.28,840.18c-2.79,10.6-11.14,17.24-18.16,24.61-19.69,20.64-40.19,40.51-59.61,61.38-6.37,6.85-9.93,6.17-16.06,.21-14.1-13.71-28.89-26.71-43.41-40-8.47,.83-13.2-5.22-18.37-10.22-59.04-57.16-118.45-113.94-177.82-170.74-40.58-38.82-80.14-78.73-121.89-116.33-13.95-12.56-25.53-27.02-35.56-42.87-2.23-49.66-.78-99.3-.83-148.94,0-7.48,2.63-14.15,6.96-20.19,17.58,16.2,35.45,32.11,52.7,48.66,142.13,136.35,284.14,272.82,426.2,409.25,1.88,1.8,3.9,3.45,5.85,5.17Z"/><path class="cls-9" d="M954.53,377.1c-.05,58.18-.1,116.35-.15,174.53-.12,2.13-1.96,2.44-3.39,3.17-71.11,67.93-142.26,135.82-213.32,203.8-39.49,37.78-78.86,75.67-118.19,113.61-4.46,4.31-8.32,9.24-12.46,13.88-12.8,20.22-27.95,37.95-50.66,47.65-9.27-2.87-12.64-12.02-18.83-18.1-20.46-20.08-40.42-40.66-60.22-61.39-5.29-5.54-10.56-11.3-1.77-19.61,45.04-42.58,89.47-85.81,134.46-128.46,28.36-26.88,55.91-54.58,84.34-81.4,70.48-66.51,139.5-134.55,209.36-201.72,16.46-15.83,33.87-30.67,50.85-45.96Z"/><path class="cls-10" d="M556.36,933.75c15.39-17.47,31.91-33.74,50.66-47.65,.06,32.53,.12,65.07,.18,97.61-18.58-14.99-34.69-32.5-50.84-49.96Z"/><path class="cls-18" d="M1302.65,1142.91c27.43-7.33,55.02-9.38,82.98-3.03,25.12,5.7,45.4,20.11,64.21,36.52,34.18,29.82,72.52,45.39,118.58,39.05,22.66-3.12,42.61-11.92,60.96-25.15,20.98-15.12,39.51-33.76,63.89-44.01,11.06-4.65,22.28-8.29,34.29-9.21-8.15,39.11-23.09,75.97-38.61,112.48-15.39,36.22-34.86,70.48-55.08,104.24-1.23,2.06-3.62,3.42-5.46,5.11-20.76,9.22-40.72,19.84-64.21,22.2-47.19,4.75-84.89-13.71-119.35-43.59-21-18.21-44.63-31.33-73.36-35.38-43.91-6.19-80.89,7.09-114.03,34.71-20.46,17.05-41.26,33.96-67.84,40.32-48.26,11.54-91.76,1.79-129.62-31.07-7.46-6.47-15.52-12.24-23.24-18.41-23.78-19.01-51.64-26.03-81.3-27.83-.08-54.32-.15-108.65-.23-162.97,.44-.7,.88-1.4,1.31-2.11,8.89-6.68,18.74-4.46,28.34-2.66,30.07,5.63,54.04,22.6,76.48,42.1,3.12,2.71,5.7,5.94,9.82,7.21,34.76,27.42,73.94,33.73,116.35,24.12,24.17-5.48,42.99-20.44,61.5-35.71,10.88-8.97,22.31-17.09,34.58-24.01,5.91-3.33,11.96-6.8,19.05-2.91Z"/><path class="cls-6" d="M1301.65,1142.91c-31.27,13.98-54.67,39.52-83.62,56.91-45.21,27.16-110,21.6-150.22-13.06-7.84-8.38-7.83-18.87-7.84-29.33-.07-60.99,0-121.98-.03-182.97q-.02-34-33.3-34.04c-17.72-.03-35.45,.22-53.17-.18-6.19-.14-12.66,.38-17.68-4.53-.52-.85-1.04-1.71-1.56-2.56,0-119.62,.04-239.23-.06-358.85,0-6.59,1.78-13.64-3.18-19.49,1.13-1.06,2.26-2.12,3.39-3.17,113.51,108.86,227.02,217.71,340.49,326.61,2.6,2.5,4.79,5.42,7.17,8.15-.13,85.51-.26,171.01-.38,256.52Z"/><path class="cls-29" d="M954.2,1136.87c-35.72-2.4-64.89,12.71-91.75,34.15-6.82,5.45-13.96,10.51-20.95,15.75-.13-80.08-.07-160.16-.63-240.24-.07-10.78,3.9-12.86,13.57-12.79,33.26,.24,66.52-.34,99.77-.6,0,0,.01,1.21,.01,1.21,6.55,4.46,6.68,11.37,6.72,18.18,.35,55.17,.36,110.34,0,165.51-.05,6.85-.37,13.68-6.87,18.13l.11,.71Z"/><path class="cls-31" d="M954.1,1136.17c.05-67.27,.09-134.54,.14-201.81,34.76-.25,69.53-.24,104.28-.9,11.06-.21,9.49,6.88,9.48,13.46-.04,79.95-.12,159.9-.19,239.85-10.38-7.72-20.83-15.36-31.14-23.18-24.43-18.5-51.73-28.26-82.57-27.42Z"/><g><path class="cls-31" d="M2196.98,410.19h100.8l223.2,560h-80l-64.8-164.8h-257.6l-64.8,164.8h-80l223.2-560Zm154.4,330.4l-104-264.8-104,264.8h208Z"/><path class="cls-31" d="M2548.18,941.4c-18.4-14.4-28-36-28-57.6,0-32,16.8-58.4,48-78.4-35.2-26.4-56-67.2-56-112,0-77.6,60.8-143.2,156.8-143.2,29.6,0,56,6.4,77.6,16.8h149.6v59.2h-87.2c11.2,20,16.8,43.2,16.8,67.2,0,76.8-60,142.4-156.8,142.4-20,0-39.2-3.2-56-8-16.8,12-26.4,26.4-26.4,41.6,0,16.8,8.8,28.8,33.6,28.8h115.2c106.4,0,156,52,156,124,0,84.8-84.8,148-205.6,148s-197.6-46.4-197.6-127.2c0-40.8,20-73.6,60-101.6Zm136.8,172c84.8,0,138.4-33.6,138.4-86.4,0-38.4-21.6-68.8-93.6-68.8h-124c-34.4,20.8-51.2,44.8-51.2,76.8,0,48.8,50.4,78.4,130.4,78.4Zm76.8-420c0-49.6-33.6-89.6-92-89.6s-92.8,40-92.8,89.6,32.8,88.8,92.8,88.8,92-40,92-88.8Z"/><path class="cls-31" d="M2880.98,414.19c0-25.6,21.6-47.2,48-47.2s47.2,21.6,47.2,47.2-20.8,48-47.2,48-48-21.6-48-48Zm13.6,152.8h68v403.2h-68v-403.2Z"/><path class="cls-31" d="M3043.38,410.19h148.8c112.8,0,182.4,61.6,182.4,157.6,0,67.2-34.4,117.6-94.4,141.6l180.8,260.8h-88.8l-162.4-246.4c-5.6,.8-12,.8-17.6,.8h-73.6v245.6h-75.2V410.19Zm75.2,64v186.4h76.8c64,0,101.6-34.4,101.6-94.4,0-56.8-37.6-92-101.6-92h-76.8Z"/><path class="cls-31" d="M3461.77,394.19c0-13.6,11.2-24,24.8-24,14.4,0,24.8,10.4,24.8,24,0,14.4-10.4,24-24.8,24-13.6,0-24.8-9.6-24.8-24Zm12,172.8h25.6v403.2h-25.6v-403.2Z"/><path class="cls-31" d="M3580.16,903c32.8,40.8,70.4,58.4,115.2,58.4,60.8,0,96-39.2,96-88,0-114.4-212.8-76.8-212.8-219.2,0-53.6,45.6-103.2,116-103.2,52,0,93.6,24.8,120.8,63.2l-22.4,16c-23.2-36.8-57.6-54.4-96.8-54.4-58.4,0-90.4,36.8-90.4,80,0,118.4,212.8,83.2,212.8,218.4,0,64-49.6,112-122.4,112-55.2,0-104.8-22.4-138.4-67.2l22.4-16Z"/><path class="cls-31" d="M3889.76,370.19h25.6v424.8l241.6-228h36.8l-172.8,163.2,182.4,240h-33.6l-168-221.6-86.4,81.6v140h-25.6V370.19Z"/></g><g><path class="cls-9" d="M1953.19,1248.65h30.96c21.14,0,34.28,11.63,34.28,29.75s-13.14,29.6-34.28,29.6h-16.76v46.36h-14.19v-105.7Zm14.19,12.08v35.18h17.06c12.08,0,19.33-6.49,19.33-17.82,0-10.72-7.25-17.37-19.33-17.37h-17.06Z"/><path class="cls-9" d="M2025.07,1335.17c0-11.48,8.76-19.63,24.92-22.35l25.67-4.23v-5.29c0-10.57-7.55-16.61-18.42-16.61-8.76,0-15.85,4.08-20.54,10.57l-9.66-7.4c6.64-9.06,17.37-14.65,30.65-14.65,19.33,0,30.8,11.33,30.8,28.09v51.04h-12.83v-9.51c-5.74,7.4-15.4,11.63-25.52,11.63-14.95,0-25.07-8.31-25.07-21.29Zm27.18,10.72c10.12,0,18.42-4.83,23.41-12.99v-14.95l-22.5,3.78c-10.42,1.81-15.1,6.49-15.1,12.99s5.29,11.17,14.19,11.17Z"/><path class="cls-9" d="M2110.08,1278.25h12.83v9.51c5.59-6.64,12.53-11.02,22.2-11.02,2.42,0,4.68,.3,6.49,.91v12.53c-2.26-.6-4.53-.91-7.55-.91-9.97,0-16.46,5.13-21.14,12.83v52.25h-12.83v-76.1Z"/><path class="cls-9" d="M2202.34,1241.1h12.83v113.25h-12.83v-113.25Z"/><path class="cls-9" d="M2273.16,1357.37c-25.67,0-41.53-18.88-41.53-41.07s14.8-41.07,38.35-41.07c20.69,0,34.13,14.04,34.13,33.07,0,3.02-.45,6.04-.91,8.15h-58.44c.45,18.27,12.08,29.29,28.39,29.29,9.82,0,18.12-4.53,23.1-11.32l9.51,7.4c-7.1,9.51-18.42,15.55-32.62,15.55Zm-27.48-50.74h45.6c-.45-11.17-8.61-20.54-21.29-20.54s-21.59,7.4-24.31,20.54Z"/><path class="cls-9" d="M2440.77,1326.87l11.33,8.76c-9.66,13.14-25.22,21.74-44.24,21.74-33.07,0-55.57-25.67-55.57-55.87s22.5-55.87,55.57-55.87c19.03,0,34.58,8.76,44.24,21.74l-11.33,8.76c-7.1-10.27-18.72-17.21-32.92-17.21-23.86,0-40.92,19.03-40.92,42.58s17.06,42.58,40.92,42.58c14.19,0,25.82-6.95,32.92-17.21Z"/><path class="cls-9" d="M2501.77,1357.37c-25.67,0-41.53-18.88-41.53-41.07s14.8-41.07,38.35-41.07c20.69,0,34.13,14.04,34.13,33.07,0,3.02-.45,6.04-.91,8.15h-58.44c.45,18.27,12.08,29.29,28.39,29.29,9.82,0,18.12-4.53,23.1-11.32l9.51,7.4c-7.1,9.51-18.42,15.55-32.62,15.55Zm-27.48-50.74h45.6c-.45-11.17-8.61-20.54-21.29-20.54s-21.59,7.4-24.31,20.54Z"/><path class="cls-9" d="M2550.24,1278.25h12.83v9.51c5.59-6.64,12.53-11.02,22.2-11.02,2.42,0,4.68,.3,6.49,.91v12.53c-2.26-.6-4.53-.91-7.55-.91-9.97,0-16.46,5.13-21.14,12.83v52.25h-12.83v-76.1Z"/><path class="cls-9" d="M2636.46,1357.37c-25.67,0-41.53-18.88-41.53-41.07s14.8-41.07,38.35-41.07c20.69,0,34.13,14.04,34.13,33.07,0,3.02-.45,6.04-.91,8.15h-58.44c.45,18.27,12.08,29.29,28.39,29.29,9.82,0,18.12-4.53,23.1-11.32l9.51,7.4c-7.1,9.51-18.42,15.55-32.62,15.55Zm-27.48-50.74h45.6c-.45-11.17-8.61-20.54-21.29-20.54s-21.59,7.4-24.31,20.54Z"/><path class="cls-9" d="M2684.93,1278.25h12.83v8.3c5.74-6.64,13.29-11.33,23.86-11.33s20.08,4.98,24.76,14.65c6.04-8.3,14.04-14.65,27.18-14.65,16.31,0,28.24,10.87,28.24,31.56v47.57h-12.83v-47.11c0-12.68-7.1-19.93-17.97-19.93-9.66,0-16.46,5.44-21.44,14.35,.15,1.66,.3,3.32,.3,5.13v47.57h-12.83v-47.11c0-12.68-6.95-19.93-17.97-19.93-10.42,0-16.91,6.49-21.29,14.35v52.7h-12.83v-76.1Z"/><path class="cls-9" d="M2819.01,1335.17c0-11.48,8.76-19.63,24.92-22.35l25.67-4.23v-5.29c0-10.57-7.55-16.61-18.42-16.61-8.76,0-15.85,4.08-20.54,10.57l-9.66-7.4c6.64-9.06,17.37-14.65,30.65-14.65,19.33,0,30.8,11.33,30.8,28.09v51.04h-12.84v-9.51c-5.74,7.4-15.4,11.63-25.52,11.63-14.95,0-25.07-8.31-25.07-21.29Zm27.18,10.72c10.12,0,18.42-4.83,23.4-12.99v-14.95l-22.5,3.78c-10.42,1.81-15.1,6.49-15.1,12.99s5.29,11.17,14.19,11.17Z"/></g><line class="cls-2" x1="1956" y1="1067" x2="2475" y2="1067"/><line class="cls-2" x1="2902.62" y1="1068.8" x2="4230" y2="1068.8"/></svg>